/* XPM */
static char *e05317446d1c44e9d4b7666ebc9c75062sSNVcxb4MT1co0U[] = {
/* columns rows colors chars-per-pixel */
"48 48 180 2 ",
"   c None",
".  c #25363C",
"X  c #27383F",
"o  c #28393F",
"O  c #293C42",
"+  c #2C3E49",
"@  c #2A4045",
"#  c #27424A",
"$  c #2D424C",
"%  c #2C4A4C",
"&  c #30454E",
"*  c #2F514D",
"=  c #31524F",
"-  c #2E4553",
";  c #264952",
":  c #2C4855",
">  c #2B4D59",
",  c #314454",
"<  c #334A55",
"1  c #344758",
"2  c #344A5C",
"3  c #394F5F",
"4  c #27515A",
"5  c #2B535E",
"6  c #2C5A5B",
"7  c #325355",
"8  c #335B54",
"9  c #34535E",
"0  c #3B5C5E",
"q  c #34655C",
"w  c #34685E",
"e  c #396A5C",
"r  c #364D62",
"t  c #394D63",
"y  c #2D5565",
"u  c #2C5966",
"i  c #275C68",
"p  c #2D5B69",
"a  c #335365",
"s  c #3A5265",
"d  c #315E66",
"f  c #3A5B64",
"g  c #345668",
"h  c #3C5568",
"j  c #335B6A",
"k  c #3B5B6B",
"l  c #2E6967",
"z  c #29616B",
"x  c #316465",
"c  c #386766",
"v  c #3B6C64",
"b  c #32626D",
"n  c #3D626E",
"m  c #326D6C",
"M  c #3C6B6B",
"N  c #367367",
"B  c #3E7065",
"V  c #3F7A67",
"C  c #35706E",
"Z  c #3A766B",
"A  c #3C796D",
"S  c #346570",
"D  c #3C6571",
"F  c #336B72",
"G  c #3D6B72",
"H  c #347173",
"J  c #3E7D70",
"K  c #377378",
"L  c #3F767C",
"P  c #3A797B",
"I  c #456667",
"U  c #456669",
"Y  c #47686A",
"T  c #41746D",
"R  c #417E6A",
"E  c #446671",
"W  c #416B74",
"Q  c #4B6B73",
"!  c #476C79",
"~  c #4E6F79",
"^  c #4A7B72",
"/  c #43707A",
"(  c #4D717D",
")  c #457D7C",
"_  c #4D7D78",
"`  c #51717F",
"'  c #43836C",
"]  c #458674",
"[  c #458976",
"{  c #488A76",
"}  c #468C7A",
"|  c #4B8F7D",
" . c #4A907E",
".. c #4D7681",
"X. c #457E83",
"o. c #4B7B84",
"O. c #527380",
"+. c #448483",
"@. c #498385",
"#. c #458987",
"$. c #4A8A85",
"%. c #4D8C89",
"&. c #528183",
"*. c #508E84",
"=. c #56858B",
"-. c #568E8F",
";. c #5C8D8C",
":. c #499181",
">. c #549486",
",. c #579887",
"<. c #599B87",
"1. c #529588",
"2. c #51998B",
"3. c #5A9C8D",
"4. c #548F90",
"5. c #529591",
"6. c #539C94",
"7. c #539D94",
"8. c #549E95",
"9. c #519B91",
"0. c #5E9A9A",
"q. c #659694",
"w. c #699A97",
"e. c #629698",
"r. c #609899",
"t. c #649F9E",
"y. c #6A9D9F",
"u. c #6A9A9C",
"i. c #5DA191",
"p. c #5FA59C",
"a. c #61A79F",
"s. c #61A59B",
"d. c #61A99F",
"f. c #6CA99F",
"g. c #6C9EA1",
"h. c #6C9DA0",
"j. c #67A3A3",
"k. c #66A2A2",
"l. c #6AA0A2",
"z. c #69A3A3",
"x. c #6CA0A2",
"c. c #69A3A3",
"v. c #63ACA3",
"b. c #63ADA3",
"n. c #64ACA3",
"m. c #64AFA4",
"M. c #6DADA4",
"N. c #64B0A5",
"B. c #70B1A5",
"V. c #71B3AD",
"C. c #73B5AC",
"Z. c #7AB7B3",
"A. c #75B9B1",
"S. c #76BBB3",
"D. c #77BCB3",
"F. c #7DBBB6",
"G. c #7EBBB6",
"H. c #7FBDB8",
"J. c #7FBEB8",
"K. c #80BCB7",
"L. c #80BDB8",
"P. c #81BEB9",
"I. c #80BDB8",
"U. c #81C1BB",
"Y. c #84C3BD",
"T. c #83C4BD",
"R. c #85C4BE",
"E. c #84C5BE",
"W. c #86C4BE",
"Q. c #86C5BF",
"!. c #86C6BF",
"~. c #84C3BD",
"^. c #87C6C0",
"/. c #87C7C0",
"(. c #86C7C0",
"). c #86C6C0",
"_. c #88C7C1",
"`. c #88C7C1",
"'. c #88C8C1",
"]. c #89C9C2",
/* pixels */
"            O O O O O + , h O.g.K.^.^.Y.Y.Y.Y.Y.Y.Y.Y.Y.Y.T.^.H.g.O.h 1 + O O O O O             ",
"            O O O O O + , h o.g.K.`.^.Y.Y.Y.Y.Y.Y.Y.Y.Y.Y.^.^.H.g.O.h 1 + O O O O O             ",
"            O O O O O $ : k o.g.G.^.^.Y.Y.Y.Y.Y.Y.Y.Y.Y.Y.^.^.H.g.o.k : + O O O O O             ",
"            O o O O O $ > j o.j.G.^.^.Y.Y.Y.Y.Y.Y.Y.Y.Y.Y.^.^.H.z.X.p > - O O O O O             ",
"            O O O O O ; 4 S X.j.H.^.).Y.Y.Y.Y.Y.Y.Y.Y.Y.Y.E.^.H.j.X.S 4 # O X O O O             ",
"            , $ + O O # 4 k X.l.P.`.^.).Y.Y.^.Y.W.Y.W.E.E.^.`.P.j.o.j 4 # O o O O O             ",
"            2 1 - $ O + : g o.g.P.^.^.Y.Y.^.Y.^.W.W.Y.W.E.`.`.P.g.o.k : $ O O O O O             ",
"            t 2 , $ + $ , h ..h.G.).T.Y.Y.J.Y.J.U.Y.U.U.U.T.E.F.h...h , $ $ O O O O             ",
"            2 1 , , & - 2 g ..0.V.S.S.A.A.A.A.A.A.A.A.A.A.S.S.V.e.~ h 1 + , + + O O             ",
"            $ & , , 2 2 y j L 5.a.N.b.v.v.v.v.v.n.n.b.b.b.b.N.d.-.! s t 2 1 , + O O             ",
"            O + $ , 2 a y p K #.6.7.7.6.7.7.7.7.6.7.7.7.8.8.7.9.@.E s t t t 1 + O O             ",
"            o O + $ 2 2 y p F P +.+.+.+.X.+.+.#.+.+.+.+.) X.+.X.G f 1 , + 1 + + O o o           ",
"            O O O + $ , 2 y j F F F S D S H H H K F F S D E E k s < $ O + O O O X o o o O O O o ",
"            O O O O @ , 2 h k S F S k k k b F F F F S k k h k h 3 < $ $ $ & $ $ $ @ @ O O O O + ",
"            O O O # : a Y ~ o.o.X.X.o.O...X.X.+.X.X.o...` ` O.` ~ Q Y I Y U I Y I f 7 : # - & $ ",
"            o O # ; 6 G =.u.g.z.h.g.h.g.g.g.k.k.k.k.h.h.u.g.g.u.w.w.w.q.w.q.w.w.q.&.M y > : 1 1 ",
"            o O $ 4 z o.s.Z.U.P.F.J.J.J.G.H.H.H.H.H.H.H.H.H.H.G.G.H.G.G.G.H.P.P.Z.h.X.z y 9 t t ",
"          + O + % 6 H %.M.Y.].].(.).).).^.^.^.^.^.^.^.^.^.^.^.^.^.^.).).).).].].).M.%.H d g t t ",
"X X + + 1 + + O % q J 1.M.P.].`.).).^.^.).Y.).^.^.^.^.).T.^.^.^.^.).^.^.).^.).).Y.M.1.J c f t t ",
"@ & 1 3 h t & @ * w R ,.B.P.`.E.P.Y.Y.).Y.Y.Y.Y.Y.Y.Y.Y.T.Y.Y.T.Y.Y.Y.Y.^.Y.^.^.H.M.,.R M f t t ",
"U U Q ~ ( E 0 8 8 w A >.M.L.W.`.Y.Y.Y.Y.Y.Y.Y.Y.Y.Y.Y.Y.T.Y.Y.Y.Y.Y.Y.Y.Y.Y.^.^.U.M.*.T M f s t ",
"q.q.w.u.w.;.^ v q l m $.n.J.W.W.Y.Y.Y.Y.Y.Y.Y.Y.Y.Y.Y.Y.Y.Y.Y.Y.Y.Y.Y.Y.Y.P.).^.H.c.%.m p a t t ",
"K.K.K.P.Z.f.>.' N l F @.j.H.`.E.Y.Y.Y.Y.Y.Y.Y.Y.Y.Y.Y.Y.Y.Y.Y.Y.Y.Y.Y.Y.Y.Y.Y.^.J.c.$.m u a r t ",
"`.].].].~.C.i.| J C C $.c.L.`.`.Y.Y.Y.Y.Y.Y.Y.Y.Y.Y.Y.Y.Y.Y.Y.Y.Y.Y.Y.Y.Y.Y.).^.J.n.$.F 6 9 < 1 ",
"`.W.`.`.Y.C.s.2.} A J $.M.L.W.W.Y.Y.Y.Y.Y.Y.Y.Y.Y.Y.Y.Y.Y.Y.Y.Y.Y.Y.Y.Y.Y.Y.Y.).L.M.>.T q 7 $ + ",
"Y.Y.W.W.P.A.d.9.:.[ [ ,.f.U.`.W.Y.Y.Y.Y.Y.Y.Y.Y.Y.Y.Y.Y.Y.Y.Y.Y.Y.Y.Y.Y.Y.Y.).).U.M.,.R w = @ O ",
"Y.Y.W.Y.U.C.s.1. .}  .3.B.U.E.E.Y.Y.Y.Y.Y.Y.Y.Y.Y.Y.Y.Y.Y.Y.Y.Y.Y.Y.Y.Y.Y.Y.T.).L.B.<.' q = @ X ",
"Y.Y.Y.`.U.B.3. .}  .2.s.C.U.W.E.Y.Y.Y.Y.Y.Y.Y.Y.Y.Y.Y.Y.Y.Y.Y.Y.Y.Y.Y.Y.Y.Y.^.^.U.B.<.' e = @ o ",
"Y.Y.^.^.J.B.<.{ [ :.9.d.C.U.Y.E.Y.Y.Y.Y.Y.Y.Y.E.Y.T.Y.Y.Y.Y.Y.Y.T.Y.Y.Y.Y.Y.^.^.G.M.<.' q % @ o ",
"E.^.^.].U.B.3. .}  .2.s.A.Y.`.`.E.^.^.E.E.^.^.E.E.^.E.^.^.^.^.E.^.^.^.^.^.^.^.].U.B.>.V q % @ O ",
"^.^.(.].Y.A.s.2. .}  .i.C.Y.].].`.E.`.^.^.^.^.^.(.(.^.^.^.^.(.(.^.^.^.^.^.^.`.].Y.M.%.m 6 % @ o ",
"H.H.P.H.F.C.s.2.| ] ] >.f.Z.P.P.P.H.L.P.P.G.H.K.P.P.K.P.H.G.P.H.G.H.H.H.H.H.P.P.Z.t.@.z 4 % O O ",
"h.h.h.l.h.0.4.$.) Z T _ ;.u.x.l.j.j.h.h.h.h.g.u.g.h.h.h.h.h.g.h.h.h.h.u.g.h.h.w.q.o.G y ; # O O ",
"O.O.o.o.X.X./ W U k k E ! ` o.o.o.o.o.O.O.O.O...O.O.O.O.O.O.O.O.O.O.O.O.O.~ ~ Q I f 7 % # O O O ",
"h g k b b z j s t t t h t h k b z b k g h h s h h h s h g h h h h h h h h h 2 2 & # # @ O O O O ",
"r r y i i u y a t t t t t y y u i i y r r r y r y y r t r r r r r r r t t 2 2 : $ $ $ @ $ O O O ",
"y u i i i i p u y t t t a p u i i z i i y p u u y y i p u a t t r y y y t t 2 > 4 > > , , + O O ",
"z z z z z z z z j a a a p i z z z z z z z i z z i i z z i p g t a u p p a t a p p j a r , $ O o ",
"m m m m m N m l b g t g i z z z z z z z z z z z z z z z i p j g a p p p p r g p p j h t 1 & O O ",
"Z Z Z Z Z Z Z Z M f s g p z z z z z z z z z z z z z z z z z i p p a a g p p p g a g t t 2 $ O O ",
"' ' ' ' ' ' ' R M f s a y p z z z i z z i z i z z z z i i z z p p a t a p u g g t t t t , , O O ",
"' ' ' ' ' ' ' ' B 0 2 2 y u p p p j j p j j p p p p j j p p p j a h t g g p g g t t 3 1 + + O O ",
"' ' ' ' ' ' ' ' v 8 & , 2 a g g g a a a g g a g g g g a g g a a g t t t g g a t t 2 , + + O O O ",
"V ' R R R ' ' R e = @ & , r t t r t t t t t t r t t r t r t 3 t t t 2 t t t t t t , & + O O O O ",
"e e e e e e e e 8 % @ @ , , 2 1 1 1 1 1 1 1 1 2 1 1 1 1 1 < 1 1 , 1 1 1 1 1 1 1 1 & $ O O O O O ",
"* * = = = = 7 = % @ O O + $ & $ $ & & + + $ $ $ + $ + $ & & & + $ $ + $ $ & $ & $ + O O O O O O ",
"@ @ @ @ O @ @ @ @ O O O O + O O @ O O @ O + O @ O O + + @ o o @ O O + + O O O O O O O O O O O O ",
"o o o o O o o o o O O O o o o O o o O o o o o O O o o o O O o o O o o o o O O o O O o O O O o O "
};
