/* XPM */
static char *_c24605bca0f4273cd84ca45dc78675cqValdp2VMB1xfJxD[] = {
/* columns rows colors chars-per-pixel */
"48 48 103 2 ",
"   c None",
".  c #26373C",
"X  c #273A3F",
"o  c #273A40",
"O  c #293C42",
"+  c #2C3F48",
"@  c #2E414A",
"#  c #31454E",
"$  c #324651",
"%  c #354C55",
"&  c #34465A",
"*  c #364A5D",
"=  c #384C5E",
"-  c #375157",
";  c #375158",
":  c #39535C",
">  c #374A61",
",  c #3A4D64",
"<  c #3C5066",
"1  c #3E536A",
"2  c #415267",
"3  c #45556D",
"4  c #415B6D",
"5  c #475770",
"6  c #485770",
"7  c #445F73",
"8  c #4A5B73",
"9  c #466075",
"0  c #4A6175",
"q  c #4E657B",
"w  c #50677D",
"e  c #51687E",
"r  c #536B83",
"t  c #576E88",
"y  c #586F89",
"u  c #57738A",
"i  c #5A738D",
"p  c #5C7590",
"a  c #577993",
"s  c #5D7A92",
"d  c #607F96",
"f  c #5F839F",
"g  c #618097",
"h  c #61819A",
"j  c #6185A0",
"k  c #638AA3",
"l  c #6288A3",
"z  c #6389A4",
"x  c #6389A5",
"c  c #658CA9",
"v  c #658DA9",
"b  c #658DAA",
"n  c #668EAA",
"m  c #668FAC",
"M  c #6594A0",
"N  c #6896A3",
"B  c #6A98A6",
"V  c #6A9AA6",
"C  c #6790AD",
"Z  c #6994AD",
"A  c #6D9CAB",
"S  c #6A96B0",
"D  c #6B97B0",
"F  c #6FA3AD",
"G  c #6EA0AF",
"H  c #6FA4AE",
"J  c #70A5AF",
"K  c #6FA0B0",
"L  c #70A6B0",
"P  c #71A6B0",
"I  c #71A6B2",
"U  c #71A6B3",
"Y  c #72A6B3",
"T  c #72A7B4",
"R  c #73A7B4",
"E  c #74A7B5",
"W  c #73A8B4",
"Q  c #73A9B6",
"!  c #74A8B5",
"~  c #74A9B6",
"^  c #74AAB7",
"/  c #76ABB8",
"(  c #76ABB9",
")  c #77ACB9",
"_  c #77ACBA",
"`  c #77ADBA",
"'  c #79B0BD",
"]  c #79B1BF",
"[  c #7AB0BE",
"{  c #7BB4C2",
"}  c #7DB8C3",
"|  c #7EB9C4",
" . c #7EBAC5",
".. c #7EBBC5",
"X. c #7FBBC6",
"o. c #7FBCC6",
"O. c #7FBCC7",
"+. c #80BCC7",
"@. c #80BDC7",
"#. c #80BCC8",
"$. c #81BEC8",
"%. c #81BFC9",
"&. c #82C0CB",
/* pixels */
"            O O O O O @ & = 9 Y ..} } } } } } } } } } } } } } @.Y 9 * * @ o O O O O             ",
"            O O O O X @ * > 7 Y ..} } } } } } } } } } } } } } +.Y 9 * * + O O O O O             ",
"            O O O O O @ = , 9 Y ..} } } } } } } } } } } } } } ..Y 8 , = + o O O O O             ",
"            O O O O X @ < 3 q E @.} } } } } } } } } } } } } } +.E q 3 2 @ o O O O O             ",
"            O O X O X @ 2 3 e Q ..} } } } } } } } } } } } } } ..Q e 3 2 @ X O O O O             ",
"            + + + O X @ 2 3 q Q @.} } } } } } } } } } } } } } +.Q q 3 < @ O O O O O             ",
"            * * & @ X + , , 9 K ..} } } } } } } } } } } } } } ..Q 9 > = @ X O O O O             ",
"            , , * + X + * * 9 Q @.} +.} } +.} } } } +.} } +.} @.L 9 > & @ O O O O O             ",
"            = = & @ @ @ * > 8 K { [ { { _ { { { [ [ [ [ [ [ { { K 9 > * @ O O O O O             ",
"            @ + @ & * = 3 3 0 x S Z m Z S Z C C Z Z Z Z Z Z Z Z k 7 > * @ o O O O O             ",
"            O X @ = , < 5 5 q j m c b b c c m m v v c c v v v C j 1 > = + o O O O O             ",
"            O O @ & = > 1 3 8 s j j l l l j j d l z z z x x f j a 1 > * + o O O O O             ",
"+ O O O O O O X o @ @ @ > , < 9 8 q p s u r 8 w p s s s s y 7 1 1 , , * @ O O O O O             ",
"O O O X O X X . . . . o & > = 1 3 5 t y r 5 2 6 r y y u u r , > * * > & + X X O O O             ",
"O O O + @ @ - - - - - : 1 7 9 q w r s d s r w r s d f s s s q 7 7 9 9 4 # @ # X O O             ",
"O X + & & 4 M J F F F F Q U Q Q E E _ _ _ E E E _ _ ` ` ` ( Q K Y Y W V 8 2 = @ O O             ",
"+ o @ * > 7 E %.+.+.#.#.#...+.....#.........+.......} ......#.+.@.@.@.^ e 3 2 # X O             ",
"o o @ < , q E +.} } } } } } } } } } } } } } } } } } } } } } } } } } +.^ r 8 3 + X O             ",
"O X @ q t s _ ..} } } } } } } } } } } } } } } } } } } } } } } } } } +.) s y w # X O O O + * , , ",
"O X $ r p s _ } } } } } } } } } } } } } } } } } } } } } } } } } } } } ) d i r # X X X . O & > * ",
"O X $ r p d _ #.} } } } } } } } } } } } } } } } } } } } } } } } } } ..^ s t w & # # - - : 4 9 7 ",
"O X # e u d _ } } } } } } } } } } } } } } } } } } } } } } } } } } } +.^ r 8 8 r e y V J J Y Y Y ",
"O X # r p d _ ..} } } } } } } } } } } } } } } } } } } } } } } } } } +.E q 3 8 u i g [ @.@...@...",
"O X # e u d _ ..} } } } } } } } } } } } } } } } } } } } } } } } } } ..E q 2 8 r t d ) +.} } } } ",
"O X # r i g / } } } } } } } } } } } } } } } } } } } } } } } } } } } ..Y 9 > < 8 8 e ^ ..} } } } ",
"O X # r i f ) ..} } } } } } } } } } } } } } } } } } } } } } } } } } @.Y 8 * , 3 3 w E +.} } } } ",
"O X # q y s ) ..} } } } } } } } } } } } } } } } } } } } } } } } } } ..Y 9 * , 3 3 w W +.} } } } ",
"O O @ 3 8 e W @.} } } } } } } } } } } } } } } } } } } } } } } } } } @.Y 9 * < 3 3 w ^ ..} } } } ",
"O X @ 2 3 w W +.} } } } } } } } } } } } } } } } } } } } } } } } } } ..Y 8 * , 3 3 w E +.} } } } ",
"O X # 2 3 e E +.} } } } } } } } } } } } } } } } } } } } } } } } } } @.Y 8 = 2 8 6 e E +.} } } } ",
"X X + 2 3 e E +.} } } } } } } } } } } } } } } } } } } } } } } } } } O.T q 1 8 r t d ! @.} } } } ",
"O O # 3 3 e ^ @.+...+...+...+...+.#.} +...+.#.} +...+...+...#.#.#.#.&._ q 3 8 y i g [ $.@...@...",
"O O @ 2 2 8 V / T T Y Y Y Y Y T E E E E ^ E E E ! ! E E Q L L H H H L N q 3 8 q r i A K Q Q Q Q ",
"O O O O + $ 3 9 9 9 7 7 7 7 9 q w w w w w w w w w e w 8 9 1 : - - - - : 3 3 3 3 1 1 7 9 9 q e w ",
"O O X X X O & = & * * * * * > 3 3 2 3 3 3 3 3 3 3 3 3 = > & X . X . . + 3 8 3 , > > > > > 3 3 3 ",
"O O O @ + $ , 2 1 1 1 1 1 1 1 5 8 8 8 8 8 3 6 3 3 6 3 , < > @ @ + O X @ < 3 3 < < < < , < 3 3 3 ",
"O X @ 2 2 2 e t r t r t t r t t t t t y r 8 3 3 6 6 3 3 4 3 = & & + X @ = < , 3 3 3 3 3 3 6 6 6 ",
"@ X # 2 6 0 y p p u p p u p u p i i i p y 8 6 3 6 6 6 6 6 3 < < = O X @ & > > 3 6 3 6 6 3 6 3 3 ",
"X X # 2 6 0 y i y p p u y p p u i i u s y 8 3 8 6 6 3 3 6 3 < , = @ @ @ , 1 1 7 8 8 8 8 8 8 8 8 ",
"O X @ 2 6 8 y i y p y p p u u p i i i i y 8 3 6 3 6 6 6 6 3 < , > = & < e u t u y y t t y t t u ",
"O X + 3 6 8 t s p p p u p p u p i i i i y 8 3 6 5 5 5 5 7 3 < > , , > 3 t p i i i i i i i i i i ",
"O O + 2 3 3 r t r t t t t t t t t t y u r 8 3 5 3 3 3 3 3 2 < , , = & 2 r p i i i i i i i i i i ",
"O O + > < < < 1 1 8 8 8 8 8 8 8 8 8 8 8 8 1 , , < < , , < , > , * @ O % e p i i i i i i i i i i ",
"O O + > , , , , , 5 5 5 6 6 6 6 8 3 8 8 3 , > , , , , , , , < < = + . # e d p s i p i s i p p p ",
"O X + & = = * & = 2 2 2 3 3 2 2 2 2 2 2 < = = & * * * * & * * & & + X @ 0 r e e e e e e e r e r ",
"O O O + + + + + + + @ # + + @ + @ @ @ @ @ + @ @ + + + + + @ @ @ + O X @ # $ $ $ % $ $ $ # # $ # ",
"O O O X O X O X X O X O O X O X O X X X X O O o o O o O O O X O X O O O X X X X X X X X X X X X ",
"O O O O O O O O O O O O O O O O O O O O O O O O O O O O O O O O O O O O O O O O O O O O O O O O "
};
