/* XPM */
static char *result[] = {
/* columns rows colors chars-per-pixel */
"48 48 64 1 ",
"  c #25373C",
". c #273A3F",
"X c #273A40",
"o c #293C42",
"O c #2C3F48",
"+ c #2E414A",
"@ c #31454E",
"# c #334752",
"$ c #354C55",
"% c #34465B",
"& c #364A5D",
"* c #384B5E",
"= c #375057",
"- c #375158",
"; c #39535C",
": c #374A61",
"> c #3A4E64",
", c #3D5066",
"< c #3E5369",
"1 c #405166",
"2 c #45556D",
"3 c #48576F",
"4 c #415B6E",
"5 c #445E72",
"6 c #495A73",
"7 c #466075",
"8 c #4A6174",
"9 c #4E647A",
"0 c #50677D",
"q c #51687E",
"w c #536B82",
"e c #576E88",
"r c #586F89",
"t c #57728A",
"y c #5A748E",
"u c #5C7590",
"i c #577993",
"p c #5D7B93",
"a c #5C7F99",
"s c #607F96",
"d c #5E839E",
"f c #618097",
"g c #61839C",
"h c #6185A1",
"j c #6389A4",
"k c #658EAA",
"l c #6796A2",
"z c #6A98A6",
"x c #6791AA",
"c c #6994AD",
"v c #6D9CAB",
"b c #6B97B0",
"n c #6FA3AD",
"m c #6FA0B0",
"M c #72A6B3",
"N c #74A8B5",
"B c #77ACBA",
"V c #79B1BF",
"C c #7BB4C2",
"Z c #7DB9C3",
"A c #80BCC7",
"S c #81BDC8",
"D c #82C0CB",
"F c None",
/* pixels */
"FFFFFFoooo.+%*7mAZZZZZZZZZZZZZZAM7:&+XooooFFFFFF",
"FFFFFFooooo+&*7MAZVZZZVZZZZZZZZAM5:&+XooooFFFFFF",
"FFFFFFoooo +*:7MAZZZAZAAZZZVZZZAM5:>OXooooFFFFFF",
"FFFFFFooooo+,29NZZZZVAVVZZZZZZZZM021+.ooooFFFFFF",
"FFFFFFXooo +12qNAZZZZZVAZZZZZZZANw41+..+ooFFFFFF",
"FFFFFFOOOoo+129NZZZZAVZZZVZZVZZAN92>+XXXooFFFFFF",
"FFFFFF&&%OXO>>7MAZZZZZZZZZZZZZZAM7>-+X+XooFFFFFF",
"FFFFFF>,*+ O%&7NAZZZZZZZZZZZZZZAB<:&+.XoooFFFFFF",
"FFFFFF&&%+++>>5mCCCCVCCCVVVVVVVCm7:&++oXooFFFFFF",
"FFFFFF+O+%**126jbxxxxxkbvzccccccj<:>&&#+ooFFFFFF",
"FFFFFFXo+&,,339gkkkkkkkkxxkxkkxxd5*,>>>+ooFFFFFF",
"FFFFFFoo+%&*126ahhdddhhhddddddddi,%%&&%+.oFFFFFF",
"FFFFFFooX+O+*,<566545696699<<<<5<@O+O++ooooooooo",
"FFFFFFooX. O%:>121:::121212:::::#.      ....XXoX",
"FFFFFFooo++#<779w95579w9w99777554;=======$@++OOO",
"FFFFFFoX+;>8zNMNMMMMMMNNNNNMmNNmMnnnnnnnMl81,&&&",
"FFFFFFXX@12qBDAZAAAAAAZAAZAAZAZDAAAAAAAAABq42>>>",
"FFFFFFOX@26wNZZZCCZCZZZZZZZZZZZVZZZZZZZZANq36>>>",
"oX+*>*O.@9rpBZZZZZZZZZZZZZVZDVZZZZVZVZZZABfqw<*>",
". X%:%X @qufBZZZZZZZVZZZZZZZVZZZZZZZZZZZZBfpt<:>",
"--;454$@=qrsBZZZZZZZVZZZAVZZAVZZZVAZZZZAABsrq1*>",
"nnnMMvtw063qNAZZZZZCZZZZZZZZVDZZZZZZZZZVANq631>>",
"AAAAAVsyr610MZZZZZZZZZZVZZAZZZZVZZZZVAZZZN911>>*",
"ZZZZAVsuy93wNZZZZZZZZZZZZZVZZZZAZAVZZZZZANq851**",
"ZZZVZVxjhyepBZZZZZZZVZZZVZVZZZZZAZVVAZAZZBprq#o+",
"ZZZZZVcxjursBZZZZVZZZZZZZZZZZZZZVZAZAVVAZBfyw@ o",
"ZZZZZVxjgsygBAZZZZZZZZZZZZZZZVZZZZZZZVDVABftq@.o",
"ZZCZABgyahjxVZZZZZZZZZZZZZZZZZZZZZZZVDVAZBdyw@.o",
"ZZZZZBfrtjxbVZZZZZZZZZZZZZZZZZZZZZZVZCZZZBfyw@.o",
"ZZZZZBfydggzVZZZZZVZZZZZZZZZZZZZZZZZZZZZABpr9@oo",
"ZZZZZCchdpffBZZZZZZZZZZZZZZZZZZZZZZZZZAZANq52+Xo",
"ZZZAZCbxlfqfVSAZAZAZAZAAZZZAZAAZZAZAZAAASBq31+oX",
"NMMNMMhdareivMMMbNMMMMmNMmMMMMMMMMMmMMmnml8,;+Xo",
"7779w95<<<<<5579ww757575775755555577555;-=+++ooo",
"&&:221>:>:>::::222:::&::&:&&:::::&:&::%X   ..ooo",
">>,262,>>>>:>>>232,>>,>>>,>>>>>>:>,,>>:#++++Oooo",
"222623222>>>222323222222422222>>>232:>>11,>:%O.o",
"322322262>>,233332532332263322>:>233>:>262,>*+.o",
"666666666>:>233333233334233332,>,<42,>,231>>%+oo",
"rrtrrrtrw,:>243323333333334343222,>,242>,,>>$+.o",
"yyyyyuyue<:,262323333333333223364,>>235>>>>>*+.o",
"yyyyyytuw,&:<22244222224222222222>:><22>>>*&%Ooo",
"yyyyyttuw#O+:>>,>>>>>>>>>,,,,>>>>:>>>,>>:*+Ooooo",
"uuuuuuupw@.O:>>>>>>:>>>>>>:>>>>>>>>>>>::>*OXoooo",
"qqqwqqww7+.+%%&&%&&%&&&&&&&&**$&:&&&&&&$*%+ooooo",
"@@@@@@##@+.o+++++++++o++OOo++++OOOOO+++++ooooooo",
".........ooo.o..XooXXXoXXooXo..oXXXXoo.o..oooooo",
".+.+oooooooooooooooooooooooo..+.Oooo..+..+.ooooo"
};
