/* XPM */
static char *_90c5812af5f4664f068f46e3cc6ac72pn4YTAs6YbiIgDS4[] = {
/* columns rows colors chars-per-pixel */
"48 48 202 2 ",
"   c None",
".  c #2F3B3F",
"X  c #3E452E",
"o  c #3B4738",
"O  c #41492F",
"+  c #40472E",
"@  c #43493A",
"#  c #4E5C33",
"$  c #475335",
"%  c #535933",
"&  c #546332",
"*  c #53653C",
"=  c #566A3D",
"-  c #5A6334",
";  c #5F733D",
":  c #637B3D",
">  c #687C34",
",  c #2C3C46",
"<  c #2F3F48",
"1  c #2B3745",
"2  c #343E48",
"3  c #3E3F48",
"4  c #433B45",
"5  c #453D49",
"6  c #4B3D49",
"7  c #4A3846",
"8  c #5A3C49",
"9  c #5B3846",
"0  c #6C3C4A",
"q  c #663846",
"w  c #723E48",
"e  c #2E4048",
"r  c #2F4147",
"t  c #344144",
"y  c #354148",
"u  c #3A4349",
"i  c #3F4247",
"p  c #344555",
"a  c #364957",
"s  c #394A52",
"d  c #374959",
"f  c #384A59",
"g  c #3F5466",
"h  c #444447",
"j  c #4C4447",
"k  c #454648",
"l  c #484F4C",
"z  c #48494B",
"x  c #5D4647",
"c  c #564B49",
"v  c #594549",
"b  c #4A5B41",
"n  c #48504D",
"m  c #465745",
"M  c #5C524C",
"N  c #535750",
"B  c #664B46",
"V  c #63434A",
"C  c #6D444B",
"Z  c #684947",
"A  c #734547",
"S  c #754B46",
"D  c #784E46",
"F  c #72434A",
"G  c #79474B",
"H  c #764D4B",
"J  c #7A4549",
"K  c #6A5448",
"L  c #7C5444",
"P  c #7D514A",
"I  c #7F5844",
"U  c #7E575D",
"Y  c #795656",
"T  c #715155",
"R  c #4F6340",
"E  c #5D7441",
"W  c #637D40",
"Q  c #636253",
"!  c #776E55",
"~  c #43596C",
"^  c #415669",
"/  c #6E7260",
"(  c #777B68",
")  c #854B4A",
"_  c #864747",
"`  c #944D45",
"'  c #82544C",
"]  c #855B4B",
"[  c #895D4B",
"{  c #875548",
"}  c #995048",
"|  c #975749",
" . c #824D52",
".. c #8C5B53",
"X. c #855E5C",
"o. c #825957",
"O. c #915D52",
"+. c #A05948",
"@. c #8C614B",
"#. c #91644D",
"$. c #9B674F",
"%. c #896554",
"&. c #976751",
"*. c #976951",
"=. c #9A6B52",
"-. c #8E7F59",
";. c #AD644D",
":. c #AF6047",
">. c #BD6947",
",. c #B66849",
"<. c #A76A55",
"1. c #B06C55",
"2. c #AF7055",
"3. c #BD7652",
"4. c #BD7B56",
"5. c #8B6D68",
"6. c #9A6E60",
"7. c #8F716B",
"8. c #9C7870",
"9. c #99766D",
"0. c #A87662",
"q. c #C27D53",
"w. c #6B843E",
"e. c #6E8B3E",
"r. c #748D3C",
"t. c #73843D",
"y. c #779137",
"u. c #7E9B39",
"i. c #799338",
"p. c #799A46",
"a. c #75994B",
"s. c #698541",
"d. c #7DA047",
"f. c #879C3C",
"g. c #84A239",
"h. c #8AAD3E",
"j. c #8CB03F",
"k. c #8EAC45",
"l. c #82A749",
"z. c #84AA4A",
"x. c #84A842",
"c. c #90AB49",
"v. c #8CB344",
"b. c #8BB54A",
"n. c #8FB948",
"m. c #92BB43",
"M. c #97B44B",
"N. c #979176",
"B. c #BF876D",
"V. c #BF9962",
"C. c #A58B7C",
"Z. c #B7A56D",
"A. c #C4865A",
"S. c #C3965F",
"D. c #C48866",
"F. c #C59A62",
"G. c #CF9C77",
"H. c #C8A468",
"J. c #C5A56A",
"K. c #D4A96C",
"L. c #D4AD70",
"P. c #CCB273",
"I. c #CAB37F",
"U. c #D4B472",
"Y. c #DDBB79",
"T. c #96C146",
"R. c #99C547",
"E. c #9BCB4B",
"W. c #9ED14F",
"Q. c #9DD051",
"!. c #A0C34E",
"~. c #A1D44F",
"^. c #A1D550",
"/. c #A5DC52",
"(. c #DCC47A",
"). c #B8A48C",
"_. c #ABA283",
"`. c #D7AE85",
"'. c #CBB99A",
"]. c #C6AB81",
"[. c #DAC899",
"{. c #D6C488",
"}. c #E3CC96",
"|. c #E5D79B",
" X c #E7D698",
".X c #CFCCA8",
"XX c #E7DDA3",
"oX c #EADDA4",
"OX c #E3D9AA",
"+X c #E4DEB3",
"@X c #ECE4B4",
"#X c #EEEDBC",
"$X c #E9E7BA",
"%X c #F0E8B5",
"&X c #F0EFBF",
"*X c #F3F3BF",
"=X c #EBE3AC",
"-X c #EFEFC0",
";X c #F0EFC0",
":X c #EFF3C0",
">X c #F2F3C2",
",X c #F8F8CC",
/* pixels */
"                                                                                                ",
"                                                                                                ",
"                                                                                                ",
"                                                                                                ",
"                                                                                                ",
"                                                                                                ",
"                                0 0 0 0 0 0 0 0 0 0 0                                           ",
"                          0 q F ........] D F 0 0 0 0 0 0 0                                     ",
"                        C D ' [ ] @.@.#.*.#.' D D A 0 0 0 D A 0                                 ",
"                      0 C A ' @.@.@.@.@.[ [ L S L L S D D A F 0                                 ",
"                    u Z A 0 ) &.=.$.] I ] @.P S A D L S C 0 8 5                                 ",
"                    u B L 0 G ' @.@.@.] [ *.*.[ F F S ' ) S j e                                 ",
"                    y x A C C D ] #.@.L ' =.*.] v 8 F O.=.@.c e                                 ",
"                    y 8 w A S D K K S w G $.[ V y 2 8 H &.&.M e                                 ",
"                    y 6 V L B 7 5 V ) w J  .{ ) H c 5 8 G @.M <                                 ",
"                      e k S v j J } | ` w 0 $.q.;.} _ w C S j e                                 ",
"                        u 8 q  .D.=.V 0.D.8.].`.T %.D.X.q 8 5 <                                 ",
"                          e 4 Y '._./ .X,X,X,X.Xa.N.[.5.7 2                                     ",
"                            k c | q.L.XX%X@X&XoX`.A.+.C z                                       ",
"                          X.<.,.) ` :.A.H.H.H.D.1.} _ ;.1.X.U                                   ",
"                      0 8.@X[.H.4.>.:.O.o.o.o...:.>.3.F.{.$X_.q                                 ",
"                     .<.G.OXC.D S.}.#X#X-X-X&X&X>X|.H.] 7.OX`.;. .T                             ",
"                A C.$X>XXXP.%.A +.G.+X#X$X#X$X&X@X`.;.A o.J.oX;X#X).H                           ",
"            q P Z. X:X>X'.Y 4 3 x ` 3.L.(.(.(.U.A.| q h 5 0 ).;X>XXXP.%.q                       ",
"            9 U .X*X#X>X'.Y 4 r 2 ! U.oX#X#X#X=XY.-.t e i C ).>X>X*XOX7.9                       ",
"            1 N Z. X#X&XXXP.! , < K 4.}.*X&X&XOXD.P t , Q Z.|.&X#X|.P.Q ,                       ",
"                l Y 4.L.L.3.) B s.k.E.M.c.k.c.k.f.f.r.K G ,.H.U.D.%.n                           ",
"                  i k l n h @ % i.m.W.W.E.E.W.W.E.m.f.- @ j l n k k                             ",
"                            X # i.m.^.^.^.W.^.^.W.T.u.& X                                       ",
"                            X # i.g.k.E.W.W.^.^.W.T.f.& X                                       ",
"                                & > g.h.j.j.h.v.j.y.&                                           ",
"                                < # : u.g.g.u.u.e.* t                                           ",
"                                  @ # ; r.g.g.u.& o                                             ",
"                                    t R E : w.; i o                                             ",
"                              + X # E p.z.l.z.d.w.* X X                                         ",
"                        + X $ * w.x.T.~././.^.^.T.v.s.= $ X X                                   ",
"                      O # w.p.z.Q./.^.R.v.z.b.R.W./.W.b.d.s.& O                                 ",
"                        = a.b.R.T.n.z.s.R b * W d.n.R.R.b.d.E                                   ",
"                          , * ; : = b s f a p s m * ; : E r                                     ",
"                            f p p p f ^ ~ ~ ~ ^ f p p p d                                       ",
"                      ~ ~ ~ ~ ~ ~ ~ ~ ~ ~ ~ ~ ~ ~ ~ ~ ~ ~ ~ ~ ~                                 ",
"                    ~ ~ ~ ~ ~ ~ ~ ~ ~ ~ ~ ~ ~ ~ ~ ~ ~ ~ ~ ~ ~ ~ ~ ~                             ",
"                    ~ ~ ~ ~ ~ ~ ~ ~ ~ ~ ~ ~ ~ ~ ~ ~ ~ ~ ~ ~ ~ ~ ~                               ",
"                      ~ ~ ~ ~ ~ ~ ~ ~ ~ ~ ~ ~ ~ ~ ~ ~ ~ ~ ~ ~ ~                                 ",
"                              ~ ~ ~ ~ ~ ~ ~ ~ ~ ~ ~ ~ ~ ~                                       ",
"                                                                                                ",
"                                                                                                ",
"                                                                                                "
};
