/* XPM */
static char *_2a2fe1aeffb498db7290fb61f385b38OqU8atZtDbzrqMCS[] = {
/* columns rows colors chars-per-pixel */
"48 48 243 2 ",
"   c None",
".  c #74513B",
"X  c #75513C",
"o  c #75513D",
"O  c #76523E",
"+  c #76533F",
"@  c #7A533F",
"#  c #775340",
"$  c #7C5542",
"%  c #7C5643",
"&  c #7F5847",
"*  c #805745",
"=  c #805845",
"-  c #815846",
";  c #875845",
":  c #875945",
">  c #865947",
",  c #885A47",
"<  c #825948",
"1  c #835A49",
"2  c #835A4A",
"3  c #855A48",
"4  c #895B4A",
"5  c #8E5B48",
"6  c #8E5C49",
"7  c #885C4C",
"8  c #885D4C",
"9  c #8F5D4C",
"0  c #8F5E4C",
"q  c #905D4B",
"w  c #915D4B",
"e  c #915E4C",
"r  c #915F4E",
"t  c #935F4F",
"y  c #8E6357",
"u  c #976050",
"i  c #976151",
"p  c #976251",
"a  c #986251",
"s  c #9A6251",
"d  c #986252",
"f  c #9B6353",
"g  c #9B6454",
"h  c #9C6556",
"j  c #9B6558",
"k  c #9B6658",
"l  c #9B6659",
"z  c #A46454",
"x  c #A46555",
"c  c #A56656",
"v  c #A56757",
"b  c #A7685A",
"n  c #AB695B",
"m  c #9B6B63",
"M  c #A06B62",
"N  c #A46F69",
"B  c #B06F63",
"V  c #B56E60",
"C  c #B56E61",
"Z  c #B56F62",
"A  c #B76F62",
"S  c #A4706A",
"D  c #A5716D",
"F  c #A7716C",
"G  c #A5726D",
"H  c #A7736D",
"J  c #B77063",
"K  c #B87063",
"L  c #B97063",
"P  c #B87164",
"I  c #B87165",
"U  c #B87265",
"Y  c #B97975",
"T  c #B97D77",
"R  c #B97E77",
"E  c #C27366",
"W  c #C27467",
"Q  c #CD786C",
"!  c #CD796E",
"~  c #C07872",
"^  c #C07973",
"/  c #CF7C73",
"(  c #CB7E79",
")  c #CB7F7A",
"_  c #D17B70",
"`  c #D57B70",
"'  c #D37C71",
"]  c #D37C72",
"[  c #D47C71",
"{  c #D77C71",
"}  c #D77D72",
"|  c #D17E76",
" . c #D17E77",
".. c #D77F77",
"X. c #D87D72",
"o. c #D87D73",
"O. c #DA7E74",
"+. c #D88077",
"@. c #D18078",
"#. c #D88078",
"$. c #BA7F82",
"%. c #CF8281",
"&. c #CF8381",
"*. c #CA8486",
"=. c #CA8587",
"-. c #CF8B85",
";. c #CF8C85",
":. c #D18D96",
">. c #D18D97",
",. c #D18E96",
"<. c #D19098",
"1. c #D4919C",
"2. c #D4929D",
"3. c #E28B8C",
"4. c #E18D8E",
"5. c #E28D8E",
"6. c #E38D8E",
"7. c #E18E8F",
"8. c #E18F8F",
"9. c #E38E8F",
"0. c #E08F93",
"q. c #E48E90",
"w. c #E48E91",
"e. c #E68E90",
"r. c #E88F91",
"t. c #E49A95",
"y. c #E49A96",
"u. c #DF94A0",
"i. c #DF95A0",
"p. c #DF9EA4",
"a. c #EA99A6",
"s. c #EA9AA6",
"d. c #EE9CA8",
"f. c #EE9EA9",
"g. c #F29AA3",
"h. c #F29AA4",
"j. c #F29BA5",
"k. c #F09CA8",
"l. c #F19DAA",
"z. c #F29EAB",
"x. c #F39EAC",
"c. c #F39FAD",
"v. c #EAABAE",
"b. c #EAADAE",
"n. c #F2A3A8",
"m. c #F2A7A9",
"M. c #F4A0AD",
"N. c #F5A0AF",
"B. c #FAA4B6",
"V. c #FAA5B6",
"C. c #F2A7B9",
"Z. c #F6A7BB",
"A. c #FAA6B8",
"S. c #FCA6B8",
"D. c #FCA7B9",
"F. c #F6A9BB",
"G. c #FCAABA",
"H. c #FAA9BD",
"J. c #F3B6B7",
"K. c #F3B7B7",
"L. c #FCB3BE",
"P. c #FAB7BE",
"I. c #FAABC3",
"U. c #FDABC1",
"Y. c #FEABC0",
"T. c #FDABC2",
"R. c #FAACC3",
"E. c #FAADC3",
"W. c #FFACC1",
"Q. c #FDADC2",
"!. c #FEACC3",
"~. c #FEADC3",
"^. c #FEADC4",
"/. c #FEADC5",
"(. c #FFADC5",
"). c #FDAEC4",
"_. c #FEAEC4",
"`. c #FEAEC5",
"'. c #FFADC6",
"]. c #FFAEC6",
"[. c #FFAFC6",
"{. c #FFAEC7",
"}. c #FFAFC7",
"|. c #FFAFC8",
" X c #FFAFC9",
".X c #FEB3C4",
"XX c #FFB0C7",
"oX c #FFB1C7",
"OX c #FFB2C7",
"+X c #FFB0C8",
"@X c #FFB1C8",
"#X c #FFB0C9",
"$X c #FFB2C8",
"%X c #FFB2C9",
"&X c #FFB0CA",
"*X c #FFB1CB",
"=X c #FEB7C9",
"-X c #FFB6CA",
";X c #FFB7CB",
":X c #FFB3CE",
">X c #FFB6CE",
",X c #FFB6CF",
"<X c #FDB8C8",
"1X c #FFB8CB",
"2X c #FFB9CB",
"3X c #FFBACB",
"4X c #FFBBCB",
"5X c #FFBACC",
"6X c #FFBACD",
"7X c #FFB8CE",
"8X c #FFBBCE",
"9X c #FFBACF",
"0X c #FFBFCD",
"qX c #FFBBD1",
"wX c #FFBCD2",
"eX c #FFBFD2",
"rX c #FAC0C2",
"tX c #FEC3CD",
"yX c #FFC0CF",
"uX c #FFC1CF",
"iX c #FEC5CC",
"pX c #FEC4CD",
"aX c #FDC9CE",
"sX c #FFC1D2",
"dX c #FFC5D0",
"fX c #FFC6D0",
"gX c #FFC7D2",
"hX c #FFC7D3",
"jX c #FFC0D4",
"kX c #FFC5D4",
"lX c #FFC8D1",
"zX c #FDCCD0",
"xX c #FFCBD6",
"cX c #FFCFD4",
"vX c #FFCCD8",
"bX c #FED1D3",
"nX c #FED2D5",
"mX c #FFD3D6",
"MX c #FFD4D8",
"NX c #FFD4D9",
"BX c #FFD8D8",
"VX c #FFD8D9",
"CX c #FFD8DA",
/* pixels */
"                                                                                                ",
"                                                                                                ",
"                                                                                                ",
"                                                                                                ",
"                                                                                                ",
"                                                                                                ",
"                                                                                                ",
"                                                                                                ",
"                                                                                                ",
"                                      X X X X . . X X X #                                       ",
"                                    * - - 2 2 2 2 2 - - * *                                     ",
"                                  : w u j M N G G S M l u w ,                                   ",
"                                # q z C ^ *.,.1.1.,.=.^ C z 5 @                                 ",
"                              & 8 h U  .8.f.F.R.Q.F.k.9.@.U h 8 &                               ",
"                            y m G R -.t.m.L.7XqX>XoXG.m.2.;.R G m y                             ",
"                          & m $.<.s.v.K.rXiXlXsX7X$XP.P.K.b.s.<.$.m &                           ",
"                        # 7 N :.C.<XtXzXbXmXcXdX2XoX;XtXaXpX2XC.>.G 7 #                         ",
"                      : 5 g Y a..XsXvXNXVXVXmXdX2X$X2XyXdXkXeXR.i.Y h 5 ,                       ",
"                    * w x I %.a.E.sXxXNXVXVXmXlX4XoX$X>X7X7X>XQ.s.&.U z w *                     ",
"                  X & u C  .6.c.R.8XhXzXmXmXcXdX2XoX`.`.oX$X$XU.c.w. .C d * @                   ",
"                  # - j ^ 5.j.S.oX;XyXpXlXlXdX0X;X X'.'.`. X XU.V.j.5.^ j - X                   ",
"                  X 2 M *.d.S.H.`.$X;X7X4X4X;X;XoX`.'.'.`.`. X`.U.S.d.*.M 2 X                   ",
"                  X 2 S ,.Z. X`.`.`. X XoX`.$X X`.`.`.`.`.`.`.`. X`.F.,.G 2 X                   ",
"                  . 2 G 1.I.:X:X`.`.`.`.`.`.`.`.`.`.'. X`.'. X`.$X:XI.1.G 2 .                   ",
"                  X 2 G 2.R.:X$X X`.'. X'.'.'.`. X`.`. X`. X`.`.:X:XI.1.G 2 .                   ",
"                  X 2 S ,.F. X`.'.`.`.`.`.`.`.`.`.`.`.`.`.`. X`.`.`.Z.,.S 2 X                   ",
"                  X - M *.f.S.Q.`. X X X X X X X X X X X X X X`.Q.G.d.*.M 2 X                   ",
"                  + - k ^ 5.j.A. X X$X X X X$X X X X X$X X X X`.V.g.5.^ j - X                   ",
"                  @ - u C  .e.j.H.`.'.U.U.U.U.U.U.U.U.U.U.`.`.H.x.6.| K u & #                   ",
"                    & w z L ( 1.k.c.c.z.z.c.z.z.z.z.z.c.c.c.c.k.,.) K c w -                     ",
"                      , w f B ) 6.r.6.6.6.6.6.6.6.6.6.6.6.w.r.3.@.B f w ,                       ",
"                        $ 3 g I ] ..#.O.#.#.#.#.#...#.#.......] I g 3 $                         ",
"                          $ 0 v V E Q ` X.X.X.{ { ` X.X.` Q E V z 0 $                           ",
"                            : 0 f n W [ O.X.[ O.O.X.O.O.[ W n d r :                             ",
"                              % 3 d L ! [ ` _ _ _ _ `  .! C h 3 %                               ",
"                                $ r b C U L C K L C L L V n r $                                 ",
"                                  4 t d d d u u u u d d u t 4                                   ",
"                                    - % - & - * & - - - % -                                     ",
"                                      # + # # # X # # # #                                       ",
"                                                                                                ",
"                                                                                                ",
"                                                                                                ",
"                                                                                                ",
"                                                                                                ",
"                                                                                                ",
"                                                                                                ",
"                                                                                                ",
"                                                                                                "
};
