/* XPM */
static char *a3bd3e5635ba48d7ae8408295fdfa6cdDpdyGT8D6nPH02Dz[] = {
/* columns rows colors chars-per-pixel */
"48 48 114 2 ",
"   c None",
".  c #25373C",
"X  c #26393E",
"o  c #293C42",
"O  c #2C3F48",
"+  c #2E414A",
"@  c #31454E",
"#  c #324650",
"$  c #344C54",
"%  c #34465A",
"&  c #364A5D",
"*  c #384C5F",
"=  c #375057",
"-  c #375158",
";  c #39535C",
":  c #374A61",
">  c #3A4D63",
",  c #3C5065",
"<  c #3E536A",
"1  c #425267",
"2  c #45556D",
"3  c #48576F",
"4  c #425B6E",
"5  c #485770",
"6  c #445E73",
"7  c #4A5C74",
"8  c #466075",
"9  c #4B6175",
"0  c #4E657C",
"q  c #50677D",
"w  c #51687E",
"e  c #506780",
"r  c #546C84",
"t  c #576E88",
"y  c #586E89",
"u  c #577289",
"i  c #5A738D",
"p  c #5C7691",
"a  c #5C7B94",
"s  c #5C7F99",
"d  c #607F96",
"f  c #5E839E",
"g  c #618097",
"h  c #61829A",
"j  c #6185A2",
"k  c #6389A5",
"l  c #678FA9",
"z  c #668EAC",
"x  c #648BA8",
"c  c #6594A0",
"v  c #6796A2",
"b  c #6A9AA6",
"n  c #6B9AA7",
"m  c #6791A9",
"M  c #6791AA",
"N  c #6994AD",
"B  c #6994AE",
"V  c #6995AE",
"C  c #6995AF",
"Z  c #6A96AF",
"A  c #6A96AF",
"S  c #6C9EAB",
"D  c #6D9CAB",
"F  c #6A96B0",
"G  c #6C9AB1",
"H  c #6FA3AD",
"J  c #6EA0AE",
"K  c #6FA4AE",
"L  c #70A5AF",
"P  c #70A6B0",
"I  c #71A6B0",
"U  c #71A6B2",
"Y  c #71A6B3",
"T  c #72A6B3",
"R  c #72A7B4",
"E  c #73A6B5",
"W  c #74A7B5",
"Q  c #72A6B3",
"!  c #74A8B5",
"~  c #74AAB7",
"^  c #73A8B4",
"/  c #77ABB9",
"(  c #75AABA",
")  c #77ADBB",
"_  c #77ADBB",
"`  c #78AEBB",
"'  c #79B0BE",
"]  c #79B1BF",
"[  c #7AB0BE",
"{  c #7AB2BF",
"}  c #79B0BE",
"|  c #7AB2C0",
" . c #7AB3C0",
".. c #7BB4C2",
"X. c #7CB4C3",
"o. c #7CB7C2",
"O. c #7DB8C3",
"+. c #7EB9C4",
"@. c #7EBAC4",
"#. c #7EBAC5",
"$. c #7FBBC5",
"%. c #7FBBC6",
"&. c #7FBCC6",
"*. c #7FBCC7",
"=. c #7DB9C4",
"-. c #80BCC7",
";. c #80BDC7",
":. c #80BCC8",
">. c #81BEC9",
",. c #81BFC9",
"<. c #81BFCA",
"1. c #81BEC8",
"2. c #82C0CA",
"3. c #82C0CB",
/* pixels */
"                                                                                                ",
"                                                                                                ",
"                                                                                                ",
"                                                                                                ",
"                                                                                                ",
"                                                                                                ",
"                                                                                                ",
"                                                                                                ",
"                                                                                                ",
"                                                                                                ",
"                                                                                                ",
"                                                                                                ",
"                                                                                                ",
"                                                                                                ",
"                                                                                                ",
"o o o o o o o o o o o o o o o o o o o o o o o + & > & O o + & > & O o o o o o                   ",
"o o o X X X X X . X X . X X X X X X X X . . . o % : % o . o % > % O X X o o o                   ",
"o o o O + @ $ = - - - - = - = = - - - - = = = ; 4 7 4 ; = ; < 6 < # + + o o o                   ",
"X o O % % 4 c T H H H H K K H H H H H H J L L L R T T K L S f f a 5 1 , + X o o o o o o + & > > ",
"o o + & * 8 ! <.$.2.-.$.$.2.2.2.-.-.-.%.-.-.-.-.*.*.*.;.<.X.F M j 9 3 1 + . X X X X X . o % : & ",
"o o + * > 8 Q ;.O.O.O.O.{ &.{ { o.%.o.o.o.%.o.o.O.O.O.O.%.] G C k q 7 3 ; $ ; = = = $ ; ; 4 8 6 ",
"o X + , 1 0 ! -.O.O.O.O.2.{ &.@.o.o.%.o.o.o.-.o.O.O.O.O.o.o.]  .W p r i n L H L H K H H K T T T ",
"+ o + 1 3 w ^ *.O.O.O.O.{ &.{ -.o.o.o.o.o.o.o.o.O.O.O.O.O.O.%.*.` d y d ] <.;.-.;.;.-.<.*.*.*.$.",
"X X + 1 2 w ^ $.O.O.O.O.$.{ 2.{ %.o.%.o.-.o.-.o.O.O.O.O.O.O.o.%.` h i h ` -.O.O.O.O.o.O.O.O.O.O.",
"o X + 1 3 q ^ -.o.-.o.-.{ -.{ -.O.O.O.O.O.O.O.O.O.O.O.O.O.O.O.O.` M j M ` %.O.O.O.O.O.O.O.O.O.O.",
"o o + 1 3 q ^ $.o.o.o.o.-.{ -.{ O.O.O.O.O.O.O.O.O.O.O.O.O.O.O.O. .C x C ] %.O.O.O.O.O.O.O.O.O.O.",
"o o + 1 2 w ^ -.o.-.o.o.{ -.{ -.O.O.O.O.O.O.O.O.O.O.O.O.O.O.O.%.` C k B ] %.o.O.O.O.O.O.O.O.O.O.",
"o X + 1 2 w ^ -.o.o.-.o.-.{ -.{ O.O.O.O.O.O.O.O.O.O.O.O.O.O.O.O. .B k B ] O.o.o.O.O.O.O.O.O.O.O.",
"o X @ 1 2 w ^ -.o.%.o.-.O.O.O.O.O.O.O.O.O.O.O.O.o.o.o.o.O.O.O.*.| B x C ] O.O.O.O.O.O.O.%.o.o.O.",
"o X O 1 2 w Q -.o.o.o.o.O.O.O.O.O.O.O.O.O.O.O.O.o.%.o.%.O.O.] ] ( l j l ] O.O.O.O.O.O.O.o.=.O.O.",
"o X O 1 2 q ^ -.o.%.O.o.O.O.o.O.O.o.O.O.o.o.o.o.%.o.o.o.O. .D C l d i h _ %.O.O.O.O.O.O.=.o.=.=.",
"O X @ 1 3 w / 2.-.-.;.-.-.;.;.%.;.%.-.-.%.-.-.-.-.-.%.-.:.o.F z x a u g ] 2.*.*.*.*.*.*.*.%.%.*.",
"X X + 1 1 9 c I L H L L H H K T R R R ! W R W T W ! W T ~ H f f p r 0 u b P P Y Y Y R R R R ~ ~ ",
"+ X X + + @ $ = = = - = = = ; 4 8 8 0 e 0 6 6 8 0 w 0 8 8 < & $ # # # # $ - - 4 6 6 6 6 8 0 0 w ",
"o o o X X X X X . X X . . . o % : : 1 5 2 > & > 1 2 1 : : % o X . . X X X . o % > : & & : 1 < 4 ",
"o o o + + O o o o o o o O O + & > > 2 2 2 > > > 2 2 2 2 < > + O + + + + o X + % : : > , < 2 5 5 ",
"o o o % * % O X o o o o % * * * > > > , , 2 2 2 , > < e t e > & $ & > & + X o + O @ 1 2 2 5 3 3 ",
"o X O & , * O X X o o O * > > : : : : : > 2 2 2 : : < r p t < : > > > & + X o X X O 1 7 2 5 3 2 ",
"o o + & > * + O O o o O * > , , < < < 2 4 7 7 7 5 < 6 t p t 6 < < > > & + X + o O @ 2 7 7 7 6 7 ",
"o o + = , > & * % O o + & : < e t u f f s u t i f f f p i u r t w < : & + X + # & > e u y t t t ",
"o o + & > > > > & + X + & : < r i p k M k p u p k m k p u u i i u < : & + X + * > 2 r p p p i i ",
"o o o $ : & & & % o o o & : < p g h m A m h a h m A m h a g f f i < : & + . + $ & , r i i i i i ",
"o X o + + + + + + o o + & : 6 J } / ] ] ] _ _ _ ] ] } / / / ) ] S 6 * & + X o o O % w p i i i i ",
"o o o o o X X X X o o + & : 8 Y 2.O.$.O.%.%.O.%.$.O.$.O.$.$.o.,.~ 8 * & + X o o X + r p i p p p ",
"o o o o o o + + o o X + & : 8 Y *.O.O.O.O.O.O.O.O.O.O.O.o.o.#.*.T 6 : & o o o o X + 9 w w w r w ",
"o o o o o o % & % + X + & : 8 Y $.O.O.O.O.O.O.O.O.O.O.O.#.o.o.,.T 6 : & + o o o o + @ $ # # # # ",
"o o o o o + & > & + o + & : 6 Y *.O.O.O.O.O.O.O.O.O.O.O.#.o.o.#.L 8 : & + X o o o o X X o X X X ",
"o o o o o + & > & + X + & & 8 Y *.O.O.O.O.O.O.O.O.O.O.O.o.o.o.#.L 8 : & + o o o o o o o o o X + "
};
