/* XPM */
static char *d19ea22259bf41cccdf9e92501b54c85FMnywogvQyEohL0B[] = {
/* columns rows colors chars-per-pixel */
"48 48 107 2 ",
"   c None",
".  c #26373C",
"X  c #27393F",
"o  c #273A40",
"O  c #293C42",
"+  c #2C3F48",
"@  c #2E414B",
"#  c #31454F",
"$  c #324750",
"%  c #344C54",
"&  c #34465A",
"*  c #364A5D",
"=  c #384C5F",
"-  c #375057",
";  c #375158",
":  c #39535C",
">  c #374A61",
",  c #3A4D64",
"<  c #3D5167",
"1  c #3E5269",
"2  c #415267",
"3  c #44556C",
"4  c #425C6E",
"5  c #445E73",
"6  c #4A5B74",
"7  c #4C5F78",
"8  c #466075",
"9  c #4B6276",
"0  c #4E647B",
"q  c #50677D",
"w  c #51687E",
"e  c #506780",
"r  c #536B83",
"t  c #576E88",
"y  c #586F8A",
"u  c #56738A",
"i  c #5A738D",
"p  c #5C7691",
"a  c #5E7C93",
"s  c #607F96",
"d  c #5E809B",
"f  c #618097",
"g  c #61829A",
"h  c #5F83A0",
"j  c #6185A2",
"k  c #6389A5",
"l  c #648BA8",
"z  c #668FAC",
"x  c #678FAD",
"c  c #6896A3",
"v  c #6A9AA6",
"b  c #6791A9",
"n  c #6994AD",
"m  c #6995AE",
"M  c #6A95AF",
"N  c #6A96AF",
"B  c #6D9CAB",
"V  c #6D9CAB",
"C  c #6A96B0",
"Z  c #6C9AB1",
"A  c #6FA3AD",
"S  c #6EA0AF",
"D  c #6FA4AE",
"F  c #70A5AF",
"G  c #70A6B0",
"H  c #71A6B2",
"J  c #72A6B3",
"K  c #72A5B4",
"L  c #72A7B4",
"P  c #74A7B5",
"I  c #72A6B3",
"U  c #73A8B4",
"Y  c #74A8B5",
"T  c #74A9B6",
"R  c #73A8B4",
"E  c #76ABB9",
"W  c #77ACB9",
"Q  c #77ACBA",
"!  c #77ADBA",
"~  c #77ADBB",
"^  c #77ADBB",
"/  c #78AEBB",
"(  c #79B0BD",
")  c #79B0BE",
"_  c #79B1BF",
"`  c #7AB0BE",
"'  c #7AB2BF",
"]  c #79B0BE",
"[  c #7AB3C1",
"{  c #7BB4C2",
"}  c #7CB7C2",
"|  c #7DB8C3",
" . c #7EB9C4",
".. c #7EBAC4",
"X. c #7EBAC5",
"o. c #7EBBC5",
"O. c #7FBBC6",
"+. c #7FBCC6",
"@. c #7FBCC7",
"#. c #7DB9C4",
"$. c #80BCC7",
"%. c #80BDC7",
"&. c #80BCC8",
"*. c #81BEC8",
"=. c #81BFC9",
"-. c #81BEC8",
";. c #82C0CB",
/* pixels */
"                                                                                                ",
"                                                                                                ",
"                                                                                                ",
"                                                                                                ",
"                                                                                                ",
"                                                                                                ",
"                                                                                                ",
"                                                                                                ",
"                                                                                                ",
"                                                                                                ",
"                                                                                                ",
"                                                                                                ",
"                                                                                                ",
"                                                                                                ",
"                                                                                                ",
"                  O o @ * , , , , , , , * + O O O o + * , , , , , , < & @ O O O O O O O O O O O ",
"                  O o @ & , > > > * > > & o . X . . O & > > > > > > > & o X X X X o o X X O O O ",
"                  o o @ 1 1 5 5 5 5 5 5 4 : ; ; ; ; ; 4 5 5 5 5 5 5 5 4 : - ; % ; % $ # # O O O ",
"O o + * , * + o O O o $ u h j A L J L L J A A F F F A J J J L L J J J J F F A A F v i w 9 # o O ",
". X O & , & o X X X X $ d x m { %.+.O.$.O.$.$.%.$.&.$.O.O.O.$.$.+.+.O.&.$.&.$.$.=.) g p r $ X O ",
"; ; : 4 8 4 : - - $ @ : g C Z [ O.} | | | | | | | | | | } | | | | | | | | | | | $.W s i r # X O ",
"A A D J J J D D v u w u L [ [ } | } | | | | | | | | | | | | | | | | | | | | | | O.W s i r # X O ",
"$.&.%.O.O.O.$.=./ g i f ~ O.O.| | | | | | | | | | | | | | | | | | | | | | | | | | Q s i w # X O ",
"} } } O.} O.} O./ g i g Q O.} | | | | | | | | | | | | | | | | | | | | | | | | | O.Q s i r # X o ",
"O.} } } O.} $.| ) b j b ) O.| | | | | | | | | | | | | | | | | | | | | | | | | | O.~ f i w $ X O ",
"} } } O.} } } $.) m l m / O.| | | | | | | | | | | | | | | | | | | | | | | | | | O.~ f i w $ X O ",
"O.} O.} } $.} $.) n k m [ | } | | | | | | | | | | | | | | | | | | | | | | | | | | ~ f i w $ X O ",
"} } } } } } } } [ m k m ) O.| | | | | | | | | | | | | | | | | | | | | | | | | | | ~ f i w $ X O ",
"| | | | } } } $.) m l m ) | | | | | | | | | | | | | | | | | | | | | | | | | | | O.~ a i w $ X O ",
"| | | | $.} ' $.) b j b ) O.| | | | | | | | | | | | | | | | | | | | | | | | | | O.W a y 0 # X O ",
"| | | | $.' } $.~ g i g ~ O.| | | | | | | | | | | | | | | | | | } | O.} | | | | %.Y r 6 4 @ X X ",
"%.%.| $.$.$.$.%.) f y f ) %.+.O.O.O.+.+.+.+.+.+.+.+.+.+.+.+.O.%.O.$.$.$.$.%.%.%.;.Y q 3 1 @ o @ ",
"F F J J L J J Y V i r p V H H R P P L P J J L J J J J J K K K K H H G D D D S D D c 9 3 < @ X O ",
"8 8 5 8 5 5 5 5 5 3 1 1 8 5 8 q e 0 5 5 5 5 8 5 5 5 8 5 5 5 5 5 1 : - ; - - - - ; ; , 1 = @ O O ",
"> * * * * * > > > > > > > = > 3 3 3 , > * > > > > > * * > > > > & O . . X X X X X O & , * O X O ",
", , , , , , = & * * = = > , > 3 3 3 < , , , , , , , , 1 1 1 , , * @ O @ O O o O X @ * , * @ O O ",
"3 3 3 , , = @ + O @ @ @ = , , < , 1 3 3 3 3 3 3 3 3 3 r y e 1 , > = > % @ O O O o @ * , * @ X X ",
"3 6 3 , > = + X o o o O * , > > > , 3 3 3 6 3 3 3 3 6 y p t , > > , , * @ o O O X @ * , * @ O O ",
"6 6 6 , , , @ + @ o o @ * , < 1 1 1 7 0 7 6 6 6 q 7 e p p r 5 1 1 , , * @ O O O @ @ > , & @ X O ",
"y y r 6 3 3 = * & @ X @ * , 1 q t i a j s i t u a j a p i i r t e 1 , * O o @ & * * , , % @ O O ",
"i i y 6 6 4 1 , * @ X @ * > 1 u i p k b k p y p k b k p y u i i u 1 > * @ X @ ; , , > , : @ X o ",
"i i t 6 3 1 > * & O X o * > 1 u f g b m b g a g b N b f f f f f p 1 > * @ X O - > * * * & @ o o ",
"i i t 6 3 3 @ O @ o o @ * > 5 S ( ~ ) ) ) ~ ~ Q ) ) ' ( W W / ( V 5 * * @ X O @ @ @ @ @ @ o @ X ",
"i s y 6 6 2 @ X X o @ @ * > 8 H ;.| +.| O.O.O.O.| O.' $.| $.' ;.H 5 * * @ X O o o o X X X X @ o ",
"r r q 3 < < @ @ @ X X @ * > 5 H +.| | | | | | | | | | | %.' %.%.H 5 > * @ X o O O O O O @ o @ X ",
"# # # # @ @ % > $ @ X @ * > 8 H +.| | | | | | | | | | | ' $.' ;.L 5 > * @ o o O O O O O X X o o ",
"X X . X X @ > , * @ X @ * > 5 H +.| | | | | | | | | | | $.' $.%.L 5 > * @ X O O O O O O X @ @ X ",
"O O O o o @ * , & @ X @ * > 8 H %.| | | | | | | | | | | ' $.' %.H 5 > * @ o O o O O O O o o o o "
};
