/* XPM */
static char *result[] = {
/* columns rows colors chars-per-pixel */
"48 48 221 2 ",
"   c #3F3F3F",
".  c #1F3240",
"X  c #2C3E47",
"o  c #2D3F48",
"O  c #253845",
"+  c #323F43",
"@  c #3C3F49",
"#  c #383D47",
"$  c #3B3E56",
"%  c #443F48",
"&  c #4C3D48",
"*  c #413D46",
"=  c #523E48",
"-  c #5A3C48",
";  c #523B47",
":  c #643746",
">  c #653A46",
",  c #693C46",
"<  c #653C49",
"1  c #6A3D49",
"2  c #2F4048",
"3  c #344046",
"4  c #314048",
"5  c #3B4349",
"6  c #3D4253",
"7  c #3E4358",
"8  c #444248",
"9  c #494648",
"0  c #574847",
"q  c #44435C",
"w  c #47455B",
"e  c #555056",
"r  c #6B4247",
"t  c #6C444B",
"y  c #654A49",
"u  c #734B45",
"i  c #72444B",
"p  c #774B48",
"a  c #69584D",
"s  c #7C5443",
"d  c #7C544B",
"f  c #7B5946",
"g  c #694550",
"h  c #66575D",
"j  c #7A5758",
"k  c #6A6A54",
"l  c #727159",
"z  c #70665D",
"x  c #464362",
"c  c #494462",
"v  c #4C446B",
"b  c #4A4769",
"n  c #4D4374",
"m  c #524972",
"M  c #554979",
"N  c #554477",
"B  c #535D62",
"V  c #625B64",
"C  c #654076",
"Z  c #5A6667",
"A  c #5C6C72",
"S  c #556C73",
"D  c #5E7477",
"F  c #4F6966",
"G  c #64676A",
"H  c #6F7170",
"J  c #B05C3E",
"K  c #835B46",
"L  c #8D544D",
"P  c #835B4C",
"I  c #845847",
"U  c #995649",
"Y  c #8D5554",
"T  c #A85B47",
"R  c #B15F4D",
"E  c #936B4C",
"W  c #886655",
"Q  c #9A6E55",
"!  c #9D7652",
"~  c #9B7758",
"^  c #8F6E4F",
"/  c #BB674A",
"(  c #B46348",
")  c #A37453",
"_  c #A77C56",
"`  c #B57554",
"'  c #AC694D",
"]  c #876868",
"[  c #987D63",
"{  c #957C7E",
"}  c #837469",
"|  c #C2724E",
" . c #C47B51",
".. c #718379",
"X. c #A4815D",
"o. c #AC855D",
"O. c #B89951",
"+. c #9C8368",
"@. c #868572",
"#. c #979676",
"$. c #948370",
"%. c #AA8B64",
"&. c #AD9D66",
"*. c #B29D66",
"=. c #BA9965",
"-. c #BC9479",
";. c #BAA167",
":. c #C88758",
">. c #C5945F",
",. c #C68147",
"<. c #E7B347",
"1. c #E9B347",
"2. c #C89862",
"3. c #CC9162",
"4. c #C4A365",
"5. c #D0A368",
"6. c #D2B46D",
"7. c #D9BB6E",
"8. c #D9BD71",
"9. c #D7B771",
"0. c #DDC172",
"q. c #DDC57C",
"w. c #DFC97E",
"e. c #DFC36D",
"r. c #594887",
"t. c #5E5284",
"y. c #5E4493",
"u. c #5F4597",
"i. c #62548C",
"p. c #615486",
"a. c #62459B",
"s. c #644797",
"d. c #665695",
"f. c #6A578F",
"g. c #726C94",
"h. c #6547A0",
"j. c #694BA4",
"k. c #6B4CAB",
"l. c #674AA1",
"z. c #6D54A6",
"x. c #7157AB",
"c. c #6F4FB0",
"v. c #7353B4",
"b. c #7559B3",
"n. c #7653BC",
"m. c #7857BC",
"M. c #724FB2",
"N. c #7C65B3",
"B. c #7E5BC5",
"V. c #7F5BC8",
"C. c #7D57C8",
"Z. c #846ABD",
"A. c #B06F91",
"S. c #825DCC",
"D. c #805FC3",
"F. c #855ED4",
"G. c #885FD9",
"H. c #8664C9",
"J. c #8964D4",
"K. c #8D6AD3",
"L. c #8B62DB",
"P. c #8760D7",
"I. c #926BDC",
"U. c #9475D4",
"Y. c #9977DE",
"T. c #8E72CE",
"R. c #946BE4",
"E. c #966CE9",
"W. c #9972E4",
"Q. c #9D74ED",
"!. c #9D7AE3",
"~. c #8C61E0",
"^. c #A37DEE",
"/. c #A57DF3",
"(. c #A87FF7",
"). c #AF7CD1",
"_. c #768889",
"`. c #78918B",
"'. c #7A9C91",
"]. c #868B8B",
"[. c #869A98",
"{. c #939A91",
"}. c #A6A795",
"|. c #BEBE97",
" X c #A4A483",
".X c #9FACA3",
"XX c #88A2A0",
"oX c #A6B5AE",
"OX c #A3AFA5",
"+X c #C6A784",
"@X c #D8B28A",
"#X c #DABB95",
"$X c #C8A6B5",
"%X c #B2C8BE",
"&X c #AFC7BE",
"*X c #D8C697",
"=X c #E1CE8B",
"-X c #E5D491",
";X c #E0C192",
":X c #D8CCA4",
">X c #D1D1A8",
",X c #E5D3A7",
"<X c #EBE4AE",
"1X c #EEEDBD",
"2X c #EBE7B5",
"3X c #F0EDBB",
"4X c #F4F1B2",
"5X c #B893DB",
"6X c #BB98E8",
"7X c #A980F6",
"8X c #AC83FC",
"9X c #A780F4",
"0X c #B187FF",
"qX c #B389FF",
"wX c #B9CDC2",
"eX c #D2CFD1",
"rX c #DEE7D7",
"tX c #F1F2C2",
"yX c #F5F8C6",
"uX c #E8EDCD",
"iX c None",
/* pixels */
"iXiXiXiXiXiXiXiXiXiXiXiXiXiXiXiXiXiXiXiXiXiXiXiXiXiXiXiXiXiXiXiXiXiXiXiXiXiXiXiXiXiXiXiXiXiXiXiX",
"iXiXiXiXiXiXiXiXiXiXiXiXiXiXiXiXiXiXiXiXiXiXiXiXiXiXiXiXiXiXiXiXiXiXiXiXiXiXiXiXiXiXiXiXiXiXiXiX",
"iXiXiXiXiXiXiXiXiXiXiXiXiXiXiXiXiXiXiXiXiXiXiXiXiXiXiXiXiXiXiXiXiXiXiXiXiXiXiXiXiXiXiXiXiXiXiXiX",
"iXiXiXiXiXiXiXiXiXiXiXiXiXiXiXiXiXiXiXiXiXiXiXiXiXiXiXiXiXiXiXiXiXiXiXiXiXiXiXiXiXiXiXiXiXiXiXiX",
"iXiXiXiXiXiXiXiXiXiXiXiXc c Z.0X/.L.L.L.L.L.L.L.L.L.L.L.R.8X7Xi.x c iXiXiXiXiXiXiXiXiXiXiXiXiXiX",
"iXiXiXiXiXiXiXiXiXiX3 7 m.S.J.L.R.(.7X7X7X7X7X(.(.8X7X(./.L.R.S.V.d.+ # iXiXiXiXiXiXiXiXiXiXiXiX",
"iXiXiXiXiXiXiXiXiXiX6 c S.L.C.n.C.Q.Q.Q.Q.Q.Q.Q.Q.Q.Q.Q.R.n.n.F.~.z.5 7 iXiXiXiXiXiXiXiXiXiXiXiX",
"iXiXiXiXiXiXiXiXiXiXc m C.F.n.l.v.J.L.F.F.F.F.F.F.F.J.L.S.j.l.C.G.z.c c iXiXiXiXiXiXiXiXiXiXiXiX",
"iXiXiXiXiXiXiX3 3 b u.u.a.a.K.(.7X8X7Xn.a.h.l.l.l.a.K.8X8X7X(.v.a.a.s.y.6 + iXiXiXiXiXiXiXiXiXiX",
"iXiXiXiXiXiXiXq 6 v h.l.H.K.^.8X8X8X8XH.C.k.a.a.n.n.W.0X8X8X0XI.K.m.a.y.q 6 iXiXiXiXiXiXiXiXiXiX",
"iXiXiXiXiXiXiXm m r.y.l.9XqX0X0X8X7X7XJ.C.c.s.s.C.V.W.7X9X0X8X0XqXK.y.y.m m iXiXiXiXiXiXiXiXiXiX",
"iXiXiXiXiX3 3 b.G.z.q m ^.8X8X0X7XL.J.r.c x c w x x z.~.R.8X8X0XqXZ.w n C.P.t.X 4 iXiXiXiXiXiXiX",
"iXiXiXiXiX3 3 b.L.z.q m ^.0X0X0X!.i.i.Y L ) O.O.O.O.] y.x.8X8XqXqXZ.q v V.~.r.3 3 iXiXiXiXiXiXiX",
"iXiXiXiXiX7 q B.E.b.v M T.Y.^.qXU.x x Y T  .1.1.<.<.l x p.8X8X!.W.N.c M J.R.t.6 q iXiXiXiXiXiXiX",
"iXiXc q n a.a.W.0XK.a.y.v w H.qXU.c c - > L / ( 1 1 e % p.8X8Xp.q M u.j.9X0XB.u.y.c c iXiXiXiXiX",
"iXiXc w M B.C.^.qXK.a.a.x.b.d.f.t.c c Y T ` 5.2.=.=.z w m i.i.x.b.c.u.j.9X0XI.B.c.c c iXiXiXiXiX",
"iXiXq 7 M P.L./.0XI.k.M.I.E.g.z V q w )  .>.0.0.0.e...5 e z G H.E.F.k.v.7X8XQ.L.m.q q iXiXiXiXiX",
"iXiX4 # b P.P./.0X^.G.L.(.(.$Xe.*.4 4 &.0.8.8.8.8.8.l O e 0.e.5X8X/.P.L.7XqXE.G.b.4 3 iXiXiXiXiX",
"iXiX4 3 7 k.k.Q.qX^.G.~.(.0XeX2X|.2 4 |.3X<X<X<X<X2X... Z <X2X6X8XQ.L.~.7X0XH.k.u.# 3 iXiXiXiXiX",
"iXiXiX4 $ M M W.qXR.n.S.(.0X$X;X+Xl l >XtXtXtXtXtXtX-.k $.#X#X6X8XR.C.C.7XqXb.n v 6 3 iXiXiXiXiX",
"iXiXiXiXiX5 4 T.0XK.y.h.9X8XA.J ` 7.9.,XtX3X1X1X1X1X=X8.4.J ( 5XqXK.s.k.9X0Xi.  4 iXiXiXiXiXiXiX",
"iXiXiXiXiX4 @ s.M.r.@ v 9XqXg.  y ` ` 9.=Xw.w.w.w.w.3.| T 9 8 T.qXZ.@ % a.c.n + 3 iXiXiXiXiXiXiX",
"iXiXiXiXiX4 # v n q + 7 B.K.g.F k p f ~ o._ _ X.X.X.^ d d F F Z.K.d.+ 5 N C v # iXiXiXiXiXiXiXiX",
"iXiXiXiXiXiXiX4 # # 5 $ r.r.g.'._.2 4 y i i t t i i 9 2 w `.`.f.s.m 5 8 , r iXiXiXiXiXiXiXiXiXiX",
"iXiXiXiXiXiXiX3 o & < : < < V g.D D D &.7.6.6.9.6.6.@.S Z t t U R T T T r 1 iXiXiXiXiXiXiXiXiXiX",
"iXiXiXiXiXiXiX= 9 r U L V V ].oX.XXX'.#.#.$.~ ~ #.#.{.XX].< t -.@X@X@X+Xi > iXiXiXiXiXiXiXiXiXiX",
"iXiXiXiXiXiXiXp p U / ( G S oXrXeX%XwXg.A h : < G A ].oX{.j j >XyXtXyX2X] j iXiXiXiXiXiXiXiXiXiX",
"iXiXiXiXiX1 t =.0.>./ T 8 2 `.wXwXrXrX] : > > 1 < < t < ] 2XtXtXtX1XtXtX1X1X$.> 1 iXiXiXiXiXiXiX",
"iXiXiXiXiX% 8 ) :.:.5.>.y ; B S D $.A.W T ' %._ U U p - Y =X-X2XyXtXtX3X-X-X} # % iXiXiXiXiXiXiX",
"iXiXiXiXiX2 4 L U _ 4.=.r 0   O 5 r r `  .5.;X=X .| L : j *.*.*X,X,X,X:X;.;.k X 2 iXiXiXiXiXiXiX",
"iXiXiXiXiXiXiX4 2 8 r r 3 4 2 2   s s :XyXtXtX3Xq.8.~ : - 4 6 U / / / ' 9 2 iXiXiXiXiXiXiXiXiXiX",
"iXiXiXiXiXiXiXiXiX@ @ 8 y y X.&.&.;.4.+.[ [ [ [ W W d p u - 0 0 0 0 0 0 iXiXiXiXiXiXiXiXiXiXiXiX",
"iXiXiXiXiXiXiXiXiXiX2 5 u p X.4.4.4.=.X.E E K K r , u s u 1 1 @ X o o o iXiXiXiXiXiXiXiXiXiXiXiX",
"iXiXiXiXiXiXiXiXiXiXiXiX< < u s s s f 4.0.O.~ ~ K s r > < < 1 @ o + iXiXiXiXiXiXiXiXiXiXiXiXiXiX",
"iXiXiXiXiXiXiXiXiXiXiXiX5 # ..OX.X.X.X+.E f 9 9 r 1 , , g G G 7 o 2 iXiXiXiXiXiXiXiXiXiXiXiXiXiX",
"iXiXiXiXiXiXiXiXiXiXiXiX9 9 @.}.}.}.}.W s 0 2 2 ; ; y h h G Z 5 o 4 iXiXiXiXiXiXiXiXiXiXiXiXiXiX",
"iXiXiXiXiXiXiXiXiXiXo 5 s K E ! ! ! ! K K y o 2 o o B D A 1 > @ 4 4 4 4 iXiXiXiXiXiXiXiXiXiXiXiX",
"iXiXiXiXiXiXiX4 o % < r E ! E K K K K E ! a o 4 4 4 0 g i p s r < & 2 2 2 4 iXiXiXiXiXiXiXiXiXiX",
"iXiXiXiXiXiXiX4 4 @ & 0 P P s s s s s P W y o 4 4 2 * & 0 0 0 0 = * 4 4 4 4 2 iXiXiXiXiXiXiXiXiX",
"iXiXiXiXiX4 4 2 3 2 2 3 - : u s s s s r > 9 2 4 4 2 2 4 o o 3 2 2 2 4 2 2 4 4 2 4 iXiXiXiXiXiXiX",
"iXiXiXiXiX4 4 4 2 2 4 4 4 3 - 1 1 1 r * 4 3 4 2 2 2 4 2 2 2 2 4 2 4 2 4 4 2 4 4 2 iXiXiXiXiXiXiX",
"iXiXiXiXiXiXiX2 2 4 4 2 4 o * 9 & & & 4 2 4 2 4 4 2 3 4 4 2 3 2 4 2 4 4 2 4 2 iXiXiXiXiXiXiXiXiX",
"iXiXiXiXiXiXiX4 4 4 2 4 4 4 o 4 2 2 2 2 4 4 2 4 o 4 4 2 2 4 4 4 o 4 4 2 3 2 iXiXiXiXiXiXiXiXiXiX",
"iXiXiXiXiXiXiXiXiXiXiXiX4 4 o 4 2 4 4 4 4 2 4 2 4 4 4 4 o 4 2 4 4 4 iXiXiXiXiXiXiXiXiXiXiXiXiXiX",
"iXiXiXiXiXiXiXiXiXiXiXiXiXiXiXiXiXiXiXiXiXiXiXiXiXiXiXiXiXiXiXiXiXiXiXiXiXiXiXiXiXiXiXiXiXiXiXiX",
"iXiXiXiXiXiXiXiXiXiXiXiXiXiXiXiXiXiXiXiXiXiXiXiXiXiXiXiXiXiXiXiXiXiXiXiXiXiXiXiXiXiXiXiXiXiXiXiX",
"iXiXiXiXiXiXiXiXiXiXiXiXiXiXiXiXiXiXiXiXiXiXiXiXiXiXiXiXiXiXiXiXiXiXiXiXiXiXiXiXiXiXiXiXiXiXiXiX",
"iXiXiXiXiXiXiXiXiXiXiXiXiXiXiXiXiXiXiXiXiXiXiXiXiXiXiXiXiXiXiXiXiXiXiXiXiXiXiXiXiXiXiXiXiXiXiXiX"
};
