/* XPM */
static char *result[] = {
/* columns rows colors chars-per-pixel */
"32 32 5 1 ",
"  c #7B5542",
". c #DE6139",
"X c #9C5142",
"o c #FF8629",
"O c None",
/* pixels */
"OOOOOOOOOOOOOOOOOOOOOOOOOOOOOOOO",
"OOOOOOOOOOOOOOOOOOOOOOOOOOOOOOOO",
"OOOOOOOOOOOOOOOOOOOOOOOOOOOOOOOO",
"OOOOOOOOOOOOOOOOOOOOOOOOOOOOOOOO",
"OOOOOOOOOOOOOOOOOOOOOOOOOOOOOOOO",
"OOOOOOOOOOOOOOOOOOOOOOOOOOOOOOOO",
"OOOOOOOOOOOOOOOOOOOOOOOOOOOOOOOO",
"OOOOOOOOOOOOOOOOOOXX  OOOOOOOOOO",
"OOOOOOOOOOOOOOOOOOXX  OOOOOOOOOO",
"OOOOOOOOOOOOOOXX..oo  OOOOOOOOOO",
"OOOOOOOOOOOOOOXX..oo  OOOOOOOOOO",
"OOOOOOXXXXXX..oooooo..  OOOOOOOO",
"OOOOOOXXXXXX..oooooo..  OOOOOOOO",
"OOOOOOXX..ooooooooooooXXOOOOOOOO",
"OOOOOOXX..ooooooooooooXXOOOOOOOO",
"OOOOOOOO  ..oooooooo....XXOOOOOO",
"OOOOOOOO  ..oooooooo....XXOOOOOO",
"OOOOOOOOOO..oooooooo......XXOOOO",
"OOOOOOOOOO..oooooooo......XXOOOO",
"OOOOOOOOXX......oo..XX    XXOOOO",
"OOOOOOOOXX......oo..XX    XXOOOO",
"OOOOOOXX..XXXX  ....XXOOOOOOOOOO",
"OOOOOOXX..XXXX  ....XXOOOOOOOOOO",
"OOOOOO      OOOO  ..  OOOOOOOOOO",
"OOOOOO      OOOO  ..  OOOOOOOOOO",
"OOOOOOOOOOOOOOOOOO    OOOOOOOOOO",
"OOOOOOOOOOOOOOOOOO    OOOOOOOOOO",
"OOOOOOOOOOOOOOOOOOOOOOOOOOOOOOOO",
"OOOOOOOOOOOOOOOOOOOOOOOOOOOOOOOO",
"OOOOOOOOOOOOOOOOOOOOOOOOOOOOOOOO",
"OOOOOOOOOOOOOOOOOOOOOOOOOOOOOOOO",
"OOOOOOOOOOOOOOOOOOOOOOOOOOOOOOOO"
};
