/* XPM */
static char *result[] = {
/* columns rows colors chars-per-pixel */
"48 48 214 2 ",
"   c #2C3C45",
".  c #2C3F48",
"X  c #263945",
"o  c #323F43",
"O  c #3A3D46",
"+  c #343E49",
"@  c #3A3F48",
"#  c #3F3342",
"$  c #443F48",
"%  c #4E3E48",
"&  c #533B46",
"*  c #5B3845",
"=  c #533D48",
"-  c #5A3D48",
";  c #653644",
":  c #653947",
">  c #6A3D47",
",  c #663C48",
"<  c #693C48",
"1  c #603548",
"2  c #723F4A",
"3  c #2F4048",
"4  c #344046",
"5  c #3B4347",
"6  c #314048",
"7  c #39414C",
"8  c #3D4253",
"9  c #3C4C53",
"0  c #3E425B",
"q  c #4D4248",
"w  c #454448",
"e  c #524C4B",
"r  c #574648",
"t  c #54524C",
"y  c #424056",
"u  c #45435C",
"i  c #49445F",
"p  c #44495F",
"a  c #574A59",
"s  c #485555",
"d  c #595653",
"f  c #47514D",
"g  c #6D4245",
"h  c #64414B",
"j  c #6D4249",
"k  c #644C49",
"l  c #734A45",
"z  c #734349",
"x  c #794A4A",
"c  c #6F5246",
"v  c #7A5344",
"b  c #78544A",
"n  c #684752",
"m  c #6B5258",
"M  c #74545B",
"N  c #7A5655",
"B  c #774B51",
"V  c #786458",
"C  c #666753",
"Z  c #444363",
"A  c #484461",
"S  c #4D466B",
"D  c #474868",
"F  c #55496C",
"G  c #4C5864",
"H  c #4C4074",
"J  c #544C75",
"K  c #544C7B",
"L  c #56497A",
"P  c #555278",
"I  c #625C64",
"U  c #6F4E6B",
"Y  c #4E6167",
"T  c #5D7177",
"R  c #5D6C6A",
"E  c #657778",
"W  c #756C70",
"Q  c #914F49",
"!  c #875747",
"~  c #9B5548",
"^  c #925B48",
"/  c #865851",
"(  c #814F48",
")  c #AB5B45",
"_  c #B15D46",
"`  c #88644A",
"'  c #866755",
"]  c #966A53",
"[  c #9D7956",
"{  c #817548",
"}  c #BA6649",
"|  c #A47559",
" . c #BF7A56",
".. c #AE664B",
"X. c #88796A",
"o. c #8D7472",
"O. c #C1714D",
"+. c #7D8779",
"@. c #958553",
"#. c #A6805B",
"$. c #9D8775",
"%. c #858F7E",
"&. c #A78F7D",
"*. c #AE966B",
"=. c #BEA46A",
"-. c #BEA868",
";. c #D1934D",
":. c #DBB148",
">. c #C98967",
",. c #C69862",
"<. c #C5A969",
"1. c #D3A868",
"2. c #DABC6E",
"3. c #D4B66B",
"4. c #D6B579",
"5. c #FAC848",
"6. c #DCC477",
"7. c #5C4D86",
"8. c #584786",
"9. c #5B5582",
"0. c #5F5888",
"q. c #5E4395",
"w. c #5E4198",
"e. c #614E8D",
"r. c #65588D",
"t. c #62459C",
"y. c #634B99",
"u. c #6D5C99",
"i. c #675597",
"p. c #705C9F",
"a. c #687C80",
"s. c #68628F",
"d. c #6547A2",
"f. c #6648A3",
"g. c #6A4CA5",
"h. c #6D4EAA",
"j. c #6C54A4",
"k. c #7156AD",
"l. c #755DAA",
"z. c #714FB4",
"x. c #7352B5",
"c. c #7B5BBE",
"v. c #7858BA",
"b. c #7863AB",
"n. c #7C5BC3",
"m. c #7C57C5",
"M. c #A86784",
"N. c #826CBB",
"B. c #815FC3",
"V. c #815DCB",
"C. c #865ED5",
"Z. c #885FD8",
"A. c #896EC4",
"S. c #8661CD",
"D. c #8A62DB",
"F. c #8962D4",
"G. c #926DDA",
"H. c #916ED7",
"J. c #9171D1",
"K. c #946CE4",
"L. c #986FE7",
"P. c #9D74EC",
"I. c #9E7CE4",
"U. c #A17CEB",
"Y. c #A077EF",
"T. c #A47BF2",
"R. c #A87FF7",
"E. c #748586",
"W. c #7A908F",
"Q. c #879596",
"!. c #A89682",
"~. c #BE8895",
"^. c #98A29F",
"/. c #A4A483",
"(. c #8E93AE",
"). c #9EAAA4",
"_. c #9CB3AE",
"`. c #A7BDB6",
"'. c #A9BFB7",
"]. c #ADB4A5",
"[. c #DBB88C",
"{. c #CCBD99",
"}. c #C8AD81",
"|. c #C5A6A4",
" X c #D1BABF",
".X c #B3C5B0",
"XX c #D5C999",
"oX c #E0CD8D",
"OX c #E5D28A",
"+X c #E4D493",
"@X c #E4D89C",
"#X c #E1C598",
"$X c #ECE09A",
"%X c #C6C2B8",
"&X c #DADAB2",
"*X c #D3CCA7",
"=X c #E7DEA4",
"-X c #E8DDB0",
";X c #DEE0B6",
":X c #ECE5AC",
">X c #ECE7B3",
",X c #E8E7B8",
"<X c #F2F1BC",
"1X c #AD84FC",
"2X c #A881F3",
"3X c #B187FF",
"4X c #B389FF",
"5X c #BFD2C7",
"6X c #CAD8CB",
"7X c #D3D2D1",
"8X c #F1F1C2",
"9X c #F8FAC7",
"0X c #E3EADA",
"qX c None",
/* pixels */
"qXqXqXqXqXqXqXqXqXqXqXqXqXqXqXqXqXqXqXqXqXqXqXqXqXqXqXqXqXqXqXqXqXqXqXqXqXqXqXqXqXqXqXqXqXqXqXqX",
"qXqXqXqXqXqXqXqXqXqXqXqXqXqXqXqXqXqXqXqXqXqXqXqXqXqXqXqXqXqXqXqXqXqXqXqXqXqXqXqXqXqXqXqXqXqXqXqX",
"qXqXqXqXqXqXqXqXqXqXqXqXqXqXqXqXqXqXo + u u u u u i u u u i 8 o 3 qXqXqXqXqXqXqXqXqXqXqXqXqXqXqX",
"qXqXqXqXqXqXqXqXqXqXqXqXqXqXqXqXqXP 9.9.7.7.7.7.7.7.7.7.7.7.9.9.9.J qXqXqXqXqXqXqXqXqXqXqXqXqXqX",
"qXqXqXqXqXqXqXqXqXqXqXqXqXqXqX+ 4 N.3XR.D.D.Z.D.D.Z.D.Z.Z.Z.L.1X1Xr.o 6 qXqXqXqXqXqXqXqXqXqXqXqX",
"qXqXqXqXqXqXqXqXqXqXqXqX4 o Z 8.8.m.K.K.T.R.R.R.R.R.R.R.R.R.P.K.K.n.c.k.u + 4 qXqXqXqXqXqXqXqXqX",
"qXqXqXqXqXqXqXqXqXqXqXqXZ Z 8.z.x.m.Z.D.Y.T.Y.Y.P.T.Y.T.Y.T.L.Z.D.D.D.n.0 6 4 qXqXqXqXqXqXqXqXqX",
"qXqXqXqXqXqXqXqXqXqXqXqXd.t.x.F.D.F.D.D.Z.D.Z.Z.C.C.Z.Z.Z.D.Z.Z.D.D.D.n.A 4 7 qXqXqXqXqXqXqXqXqX",
"qXqXqXqXqXqXqXqXqXA u J m.C.v.t.d.H.R.R.R.R.H.t.d.m.Z.D.T.1XP.C.C.P.R.T.n.n.u.Z i qXqXqXqXqXqXqX",
"qXqXqXqXqXqXqXqXqXA u S j.j.x.S.B.U.3X1X3X3XU.B.n.n.v.V.R.3XT.L.P.R.1X1XP.P.v.A i qXqXqXqXqXqXqX",
"qXqXqXqXqXqXqXqXqXi u u u 0 s.2XR.R.1X1X1X1X1X3X3Xc.q.h.U.3X3X3X1X1X1X3X1X3XA.A i qXqXqXqXqXqXqX",
"qXqXqXqXqXqXqXqXqX7 7 7 + + u J J y.h.x.T.3X3X3X1Xp.u K U.3X1X1X3X1X1X1X1X3XA.u u qXqXqXqXqXqXqX",
"qXqXqXqXqXqXqXqXqX4 + w V @.` / N F H e.U.3X1X3X3Xu.y L U.3X1X1X1X1X1X1X1X3XG.i.i.L qXqXqXqXqXqX",
"qXqXqXqXqXqXqXqXqX4 . t :.5.;.} _ k o u I.4X2X2XU.u.u P U.3X1X1X1X1X1X1X1X1XT.D.D.e.i A qXqXqXqX",
"qXqXqXqXqXqXqXqXqXqXqXqXv v z 2 z q o p U.4XJ.J F 8.t.y.U.3XY.D.D.T.1X1X3X3X1X1XR.u.u A qXqXqXqX",
"qXqXqXqXqXqXqXqXqXqXqXqX> > z Q Q r 7 u p.N.l.y.i.y.t.h.T.3XY.F.D.Y.1X1XP.P.T.1X1Xu.u A qXqXqXqX",
"qXqXqXqXqXqXqXqXqXqXqXqX2 z Q } } M Z A a a r.D.D.x.w.h.U.3XY.S.C.P.3X1XD.C.K.1X1Xu.i A qXqXqXqX",
"qXqXqXqXqXqXqXqXqX< < 2 ) _ #.2.2.] 1 B <.3.|.R.1Xm.w.h.T.4XG.d.d.G.4X2XD.C.L.1X1Xu.u A qXqXqXqX",
"qXqXqXqXqXqXqXqXqX< : B <.[.[.@X@XX.# d XX+X X3X1Xl.H e.U.4XG.t.t.S.P.L.n.x.S.1X1Xr.7 8 qXqXqXqX",
"qXqXqXqXqXqXqXqXqX, 1 M &X9X8X8X<X%.9 I *X<X7X3X1Xu.y J U.3XH.y.w.m.Z.m.d.w.c.1X1X0.o 6 qXqXqXqX",
"qXqXqXqXqXqXqXqXqX6   s &X9X8X8X8X,X,X,XoX3.|.3X3Xj.$ K U.4XA.i A k.D.C.g.w.z.D.D.K o 4 qXqXqXqX",
"qXqXqXqXqXqXqXqXqXqXqXs +.+./.+X+X+X+XoX,.;.~.1X3Xi.+ Z v.S.p.i Z k.D.C.7.H y.D.D.K 6 4 qXqXqXqX",
"qXqXqXqXqXqXqXqXqXqXqXqX. X C -.-.<.<.,.) ) M.Y.P.s.9 G 7.y.L u u j.C.n.S u 7.n.n.K   4 qXqXqXqX",
"qXqXqXqXqXqXqXqXqXqXqXqXqXqXqX7 6 r j j , > U w.d.(..X_.a.T Y + o 8.d.q.S A u 7 7 qXqXqXqXqXqXqX",
"qXqXqXqXqXqXqXqXqXqXqXqXqXqXqXq = d I I j > U (.(.Q.W.Q.]..X!.! ( a D Z @ @ 8 qXqXqXqXqXqXqXqXqX",
"qXqXqXqXqXqXqXqXqXqXqXqXqXqXqXM M W W.E.m n W ).).E.Y E ,X9X#XO. .c O O 8 + 7 qXqXqXqXqXqXqXqXqX",
"qXqXqXqXqXqXqXqXqXqXqXqX< ; W .X'.6X0X6XE.T I j h w . s &X9X:X2.2.] , < qXqXqXqXqXqXqXqXqXqXqXqX",
"qXqXqXqXqXqXqXqXqXqXqXqX< ; o.7X6X6X5X'.Y 9 9 $ @ 4   s }.OXOX:X$Xo.1 , qXqXqXqXqXqXqXqXqXqXqXqX",
"qXqXqXqXqXqXqXqXqXqXqXqX* & o. X6X].^.Q.d q w 7 @ @ O t -.2.OX<X8X&.( / qXqXqXqXqXqXqXqXqXqXqXqX",
"qXqXqXqXqXqXqXqXqXqXqXqX.   $ < : : : 2 ) } ~ , < < ; l <.6.oX8X8XOX2.<.B : < qXqXqXqXqXqXqXqXqX",
"qXqXqXqXqXqXqXqXqXqX> 2 Q ^ ( < < !.{.{.1.1.| < < [ *.=.@X:X>X<X8X>X>XXXN ; < qXqXqXqXqXqXqXqXqX",
"qXqXqXqXqXqXqXqXqX< : 2 ..} ~ < < !.*X{.<.<.#.- r | 1.4.,X8X8X8X8X>X:XXXm & - qXqXqXqXqXqXqXqXqX",
"qXqXqXqXqXqXqXqXqX< : z _ } ~ : , < < < v ! k 3 3 ! } O.;X9X<X8X8XoX2.<.f   6 qXqXqXqXqXqXqXqXqX",
"qXqXqXqXqXqXqXqXqXqXqXqXe e r < : l v v ] ] b   3 r ( / 6.OX4.>.>.V d d qXqXqXqXqXqXqXqXqXqXqXqX",
"qXqXqXqXqXqXqXqXqXqXqXqX. 3 % : < l l v ] ] N e e r & h @.*.[ ^ ^ e 3 3 qXqXqXqXqXqXqXqXqXqXqXqX",
"qXqXqXqXqXqXqXqXqXqXqXqXqXqXqX: , < < j v v ` | | d 3 6 6 3 3 3 3 qXqXqXqXqXqXqXqXqXqXqXqXqXqXqX",
"qXqXqXqXqXqXqXqXqXqXqXqXqXqXqX@ @ - < , w 5 t ! ! / ' ' c c r 6 6 qXqXqXqXqXqXqXqXqXqXqXqXqXqXqX",
"qXqXqXqXqXqXqXqXqXqXqXqXqXqX7 $ $ % = = + . d X.X.$.&.$.V N d 6 3 6 qXqXqXqXqXqXqXqXqXqXqXqXqXqX",
"qXqXqXqXqXqXqXqXqX6 6 6 6 3 $ < < $ 3 6 +   R '..X.X.X_.+.T Y 6 6 6 3 6 6 6 6 qXqXqXqXqXqXqXqXqX",
"qXqXqXqXqXqXqX7 3 6 3 4 - , : > : w 3 + & * k ' V M U m a h q 3 3 3 6 6 6 3 6 3 6 qXqXqXqXqXqXqX",
"qXqXqXqXqXqX6 3 6 6 3 4 % = = = = % $ q b N ! ` ` v g g < < - $ $ + 3 + 6 6 6 3 6 3 qXqXqXqXqXqX",
"qXqXqXqX6 3 6 6 3 6 3 6 6 3 3 3 3 = : j ] | [ [ [ ` v v j : < < : w 3 6 6 3 6 6 6 6 3 6 qXqXqXqX",
"qXqXqXqX6 3 6 6 6 6 6 6 3 6 6 6 3 4 + w k z z z z q 7 5 4 @ @ + @ 6 6 3 3 6 3 6 6 6 3 6 qXqXqXqX",
"qXqXqXqXqX6 3 6 6 3 3 6 6 6 6 3 3 + . 4 % & q % & O 3 3 3 3 3 3 6 6 6 6 3 6 6 6 3 6 6 qXqXqXqXqX",
"qXqXqXqXqXqXqX6 6 6 6 6 6 6 6 3 6 3 6 3 3 3 3 3 3 6 3 6 6 3 6 3 6 6 6 3 6 6 3 6 6 qXqXqXqXqXqXqX",
"qXqXqXqXqXqXqXqXqXqXqXqX3 6 6 6 6 3 6 6 6 6 6 3 3 6 6 6 6 3 6 6 3 6 6 6 qXqXqXqXqXqXqXqXqXqXqXqX",
"qXqXqXqXqXqXqXqXqXqXqXqXqX6 3 6 6 6 6 6 6 6 6 6 6 6 3 6 6 6 6 6 6 6 3 qXqXqXqXqXqXqXqXqXqXqXqXqX",
"qXqXqXqXqXqXqXqXqXqXqXqXqXqXqXqXqXqXqXqXqXqXqXqXqXqXqXqXqXqXqXqXqXqXqXqXqXqXqXqXqXqXqXqXqXqXqXqX"
};
