/* XPM */
static char *result[] = {
/* columns rows colors chars-per-pixel */
"48 48 223 2 ",
"   c #29323E",
".  c #28333E",
"X  c #29323F",
"o  c #29343F",
"O  c #29353F",
"+  c #28373E",
"@  c #29363F",
"#  c #283A3E",
"$  c #293540",
"%  c #293640",
"&  c #293740",
"*  c #283840",
"=  c #293940",
"-  c #293841",
";  c #293941",
":  c #283A40",
">  c #293A41",
",  c #293B41",
"<  c #293B42",
"1  c #293C42",
"2  c #293D43",
"3  c #293E43",
"4  c #2A3B46",
"5  c #2A3C46",
"6  c #2A3D47",
"7  c #2A3E46",
"8  c #2A3E47",
"9  c #2A3F47",
"0  c #294043",
"q  c #294245",
"w  c #294345",
"e  c #294545",
"r  c #294645",
"t  c #294646",
"y  c #294746",
"u  c #294947",
"i  c #2A4846",
"p  c #2A4A47",
"a  c #2A4B47",
"s  c #2A4C47",
"d  c #2A4048",
"f  c #2A4248",
"g  c #2A4348",
"h  c #2B424B",
"j  c #2B464D",
"k  c #2A4A48",
"l  c #2A4B4B",
"z  c #2A4D48",
"x  c #285148",
"c  c #295049",
"v  c #295149",
"b  c #29514A",
"n  c #29524A",
"m  c #29534A",
"M  c #295449",
"N  c #29554A",
"B  c #29544B",
"V  c #29554B",
"C  c #2A564B",
"Z  c #2B504D",
"A  c #2A534E",
"S  c #2A574F",
"D  c #295B4D",
"F  c #295C4E",
"G  c #2F4B5A",
"H  c #2F4D5D",
"J  c #30495D",
"K  c #304A5D",
"L  c #304A5E",
"P  c #304D5D",
"I  c #304C5E",
"U  c #30515F",
"Y  c #30585D",
"T  c #2A614F",
"R  c #296650",
"E  c #296653",
"W  c #296753",
"Q  c #296C55",
"!  c #296D55",
"~  c #296D56",
"^  c #296E56",
"/  c #296F56",
"(  c #2A7357",
")  c #2A7759",
"_  c #29775A",
"`  c #297A59",
"'  c #29795B",
"]  c #297B5A",
"[  c #297A5B",
"{  c #297D5A",
"}  c #297C5B",
"|  c #297E5B",
" . c #2A7E5B",
".. c #2F7F5A",
"X. c #297D5C",
"o. c #297E5C",
"O. c #324962",
"+. c #314D62",
"@. c #314D63",
"#. c #314E63",
"$. c #324A64",
"%. c #324B65",
"&. c #324D64",
"*. c #324E64",
"=. c #2F5F60",
"-. c #2F5F61",
";. c #315063",
":. c #315163",
">. c #315463",
",. c #315164",
"<. c #315264",
"1. c #325B64",
"2. c #2F6060",
"3. c #2F6161",
"4. c #2F6361",
"5. c #2F6465",
"6. c #306164",
"7. c #306265",
"8. c #306365",
"9. c #306466",
"0. c #306566",
"q. c #306467",
"w. c #306567",
"e. c #306666",
"r. c #306667",
"t. c #306767",
"y. c #306D65",
"u. c #2F7467",
"i. c #2F7567",
"p. c #2A835D",
"a. c #29875E",
"s. c #29875F",
"d. c #2F865C",
"f. c #29885E",
"g. c #29885F",
"h. c #29895F",
"j. c #2A885F",
"k. c #30805D",
"l. c #30895D",
"z. c #308A5D",
"x. c #308B5D",
"c. c #308A5E",
"v. c #308B5E",
"b. c #298B60",
"n. c #298E60",
"m. c #298F61",
"M. c #308D62",
"N. c #2F9160",
"B. c #2F9360",
"V. c #2F9261",
"C. c #2F9561",
"Z. c #2F9A63",
"A. c #299F64",
"S. c #309561",
"D. c #329164",
"F. c #309B64",
"G. c #329D64",
"H. c #329F64",
"J. c #2FA667",
"K. c #29A867",
"L. c #2AA269",
"P. c #2AA369",
"I. c #2AA56A",
"U. c #2BA56D",
"Y. c #2BA66E",
"T. c #29AC69",
"R. c #2AAC69",
"E. c #2AAE69",
"W. c #2AAB6C",
"Q. c #2BA86E",
"!. c #2AAD6D",
"~. c #2AAF6D",
"^. c #2BAF6D",
"/. c #32A065",
"(. c #30A466",
"). c #30A566",
"_. c #30A867",
"`. c #30A968",
"'. c #29B46B",
"]. c #29B56B",
"[. c #29B66B",
"{. c #29B76B",
"}. c #2BB36F",
"|. c #29B46C",
" X c #2AB56C",
".X c #29B66C",
"XX c #29B76C",
"oX c #2AB66F",
"OX c #29B96C",
"+X c #29B96D",
"@X c #29BC6E",
"#X c #2AB770",
"$X c #2AB971",
"%X c #2ABA71",
"&X c #2ABB71",
"*X c #2ABA72",
"=X c #2ABD71",
"-X c #2ABC72",
";X c #2ABD72",
":X c #2ABE72",
">X c #29C16F",
",X c #2AC06F",
"<X c #29C371",
"1X c #29C470",
"2X c #29C471",
"3X c #29C571",
"4X c #2AC771",
"5X c #2AC972",
"6X c #2ACA73",
"7X c #2ACC73",
"8X c #28D174",
"9X c #29D375",
"0X c #29D475",
"qX c #28D575",
"wX c #28D775",
"eX c #29D476",
"rX c #29D777",
"tX c #28D976",
"yX c #28D977",
"uX c #28DB76",
"iX c #28DC77",
"pX c #29DA78",
"aX c None",
/* pixels */
"aXaXaXaXaXaXaXaXaXaXaXaXaXaXaXaXaXaXaXaXaXaXaXaXaXaXaXaXaXaXaXaXaXaXaXaXaXaXaXaXaXaXaXaXaXaXaXaX",
"aXaXaXaXaXaXaXaXaXaXaXaXaXaXaXaXaXaXaXaXaXaXaXaXaXaXaXaXaXaXaXaXaXaXaXaXaXaXaXaXaXaXaXaXaXaXaXaX",
"aXaXaXaXaXaXaXaXaXaXaXaXaXaXaXaXaXaXaXaXaXaXaXaXaXaXaXaXaXaXaXaXaXaXaXaXaXaXaXaXaXaXaXaXaXaXaXaX",
"aXaXaXaXaXaXaXaXaXaXaXaXaXaXaXaXaXaXaXaXaXaXaXaXaXaXaXaXaXaXaXaXaXaXaXaXaXaXaXaXaXaXaXaXaXaXaXaX",
"aXaXaXaXaXaXaXaXaXaXaXaXaXaXaXaXaXaXaXaXaXaXaXaXaXaXaXaXaXaXaXaXaXaXaXaXaXaXaXaXaXaXaXaXaXaXaXaX",
"aXaXaXaXaXaXaXaXaXaXaXaXaXaXaXaXaXaXaXaXaXaXaXaXaXaXaXaXaXaXaXaXaXaXaXaXaXaXaXaXaXaXaXaXaXaXaXaX",
"aXaXaXaXaXaXaXaXaXaXaXaXaXaXaXaXaXaXaXaXaXaXaXaXaXaXaXaXaXaXaXaXaXaXaXaXaXaXaXaXaXaXaXaXaXaXaXaX",
"aXaXaXaXaXaXaXaXaXaXaXaXaXaXaXaXaXaXaXaXaXaXaXaXaXaXaXaXaXaXaXaXaXaXaXaXaXaXaXaXaXaXaXaXaXaXaXaX",
"aXaXaXaXaXaXaXaXaXaXaXaXaXaXaXaXaXaXaXaXaXaXaXaXaXaXaXaXaXaXaXaXaXaXaXaXaXaXaXaXaXaXaXaXaXaXaXaX",
"aXaXaXaXaXaXaXaXaXaXaXaXaXaXaXaXaXaXaXaXaXaXaXaXaXaXaXaXaXaXaXaXaXaXaXaXaXaXaXaXaXaXaXaXaXaXaXaX",
"aXaXaXaXaXaXaXaXaXaXaXaXaXaXaXaXaXaXaXaXaXaXaXaXaXaXaXaXaXaXaXaXaXaXaXaXaXaXaXaXaXaXaXaXaXaXaXaX",
"aXaXaXaXaXaXaXaXaXaXaXaXaXaXaXaXaXaXaXaXaXaXaXaXaXaXaXaXaXaXaXaXaXaXaXaXaXaXaXaXaXaXaXaXaXaXaXaX",
"aXaXaXaXaXaXaXaXaXaXaXaXaXaXaXaXaXaXaXaXaXaXaXaXaXaXaX:.:.:.:.:.:.aXaXaXaXaXaXaXaXaXaXaXaXaXaXaX",
"aXaXaXaXaXaXaXaXaXaXaXaXaXaXaXaXaXaXaXaXaXaXaXaXaXaXaX+.+.#.;.:.:.aXaXaXaXaXaXaXaXaXaXaXaXaXaXaX",
"aXaXaXaXaXaXaXaXaXaXaXaXaXaXaXaXaXaXaXaXaXaXaXaXaXaXaX0.e.7.>.;.:.aXaXaXaXaXaXaXaXaXaXaXaXaXaXaX",
"aXaXaXaXaXaXaXaXaXaXaXaXaXaXaXaXaXaXaXaXaXaXaXaX:.+.0.Q.=XY.7.#.:.aXaXaXaXaXaXaXaXaXaXaXaXaXaXaX",
"aXaXaXaXaXaXaXaXaXaXaXaXaXaXaXaXaXaXaXaXaXaXaXaX+.O.8.&XuX;Xt.&.<.aXaXaXaXaXaXaXaXaXaXaXaXaXaXaX",
"aXaXaXaXaXaXaXaXaXaXaXaXaXaXaXaXaXaXaXaXaXaXaXaX0.8.u.~.1XW.2.K P aXaXaXaXaXaXaXaXaXaXaXaXaXaXaX",
"aXaXaXaXaXaXaXaXaXaXaXaXaXaXaXaXaXaXaXaXaX:.+.0.Q.&X~.m.f.] l 6 d aXaXaX:.:.:.:.:.:.aXaXaXaXaXaX",
"aXaXaXaXaXaXaXaXaXaXaXaXaXaXaXaXaXaXaXaXaX<.*.r.%XwX>Xa._ ^ r = , aXaXaX@.+.#.;.:.:.aXaXaXaXaXaX",
"aXaXaXaXaXaXaXaXaXaXaXaXaXaXaXaXaXaXaXaXaXP J 4.oX9X@X| ~ E e > 1 aXaXaX5.e.7.>.;.:.aXaXaXaXaXaX",
"aXaXaXaXaXaXaXaXaXaXaXaXaXaXaXaXaXaXaXaXaXd 4 S |.eX].F q e 3 1 1 1 & B I.:XY.7.#.:.aXaXaXaXaXaX",
"aXaXaXaXaXaXaXaXaXaXaXaXaXaXaXaXaXaXaXaXaX, @ M '.rX'.v   - < 1 < - X c {.iX;Xt.&.<.aXaXaXaXaXaX",
"aXaXaXaXaXaXaXaXaXaXaXaXaXaXaXaXaXaXaXaXaX1 & m R.7XE.D q e 3 < 0 c v R T.3XW.2.K P aXaXaXaXaXaX",
"aXaXaXaXaXaXaXaXaXaXaXaXaXaXaXaXaXaXaXaXaX1 ; z N._.Z.) / E e % c A.+XT.n.g.] l 6 d aXaXaXaXaXaX",
"aXaXaXaXaXaXaXaXaXaXaXaXaXaXaXaXaXaXaXaXaX1 ; s x.H.S. .' ^ t O V +XpX<Xs._ ^ e = , aXaXaXaXaXaX",
"aXaXaXaXaXaXaXaXaXaXaXaXaXaXaXaXaXaXaXaXaX2 ; k k.D.M.j.h.` u O m R.6X X{ ~ W t > 1 aXaXaXaXaXaX",
"aXaXaXaXaXaXaXaXaXaXaXaXaXaXaX:.:.:.:.<.H 9 : f Y 1.y.!.3XK.n o z N.`.B.C w t aXaXaXaXaXaXaXaXaX",
"aXaXaXaXaXaXaXaXaXaXaXaXaXaXaX+.+.+.+.&.K 8 # 9 I %.w.*XyXXXN o s z./.l.p & > aXaXaXaXaXaXaXaXaX",
"aXaXaXaXaXaXaXaXaXaXaXaXaXaXaX0.e.0.0.t.-.j 7 h G L 3.^.7XR.m o a d.F.d.a ; 1 aXaXaXaXaXaXaXaXaX",
"aXaXaXaXaXaXaXaXaXaXaXaX:.+.0.Q.$X#X#X%XU.-.L G h 5 Z V.`.N.z % y ( p.( y > 1 aXaXaXaXaXaXaXaXaX",
"aXaXaXaXaXaXaXaXaXaXaXaX:.+.e.:XtX0X8XqX&X9.$.L 8 + a z./.z.s & t ^ } ^ t > 1 aXaXaXaXaXaXaXaXaX",
"aXaXaXaXaXaXaXaXaXaXaXaX:.#.6.P.[..X,X4X}.i.q.=.g & a d.F.d.a & e ! o./ t > 1 aXaXaXaXaXaXaXaXaX",
"aXaXaXaXaXaXaXaXaXaXaXaX:.,.U A x T C.(.J.}.-XL.b $ y ( p.( y ; 3 aXaXaXaXaXaXaXaXaXaXaXaXaXaXaX",
"aXaXaXaXaXaXaXaXaXaXaXaX:.<.P 5 . i c.G.).5XyXOXN O t ^ } ^ t > 1 aXaXaXaXaXaXaXaXaXaXaXaXaXaXaX",
"aXaXaXaXaXaXaXaXaXaXaXaX:.<.P d * a ..v.B. X2XK.n % e ! o./ t > 1 aXaXaXaXaXaXaXaXaXaXaXaXaXaXaX",
"aXaXaXaXaXaXaXaXaXaXaXaXaXaXaXaXaXaXa p C { b.` u ; 3 aXaXaXaXaXaXaXaXaXaXaXaXaXaXaXaXaXaXaXaXaX",
"aXaXaXaXaXaXaXaXaXaXaXaXaXaXaXaXaXaX; & w Q [ Q t > 1 aXaXaXaXaXaXaXaXaXaXaXaXaXaXaXaXaXaXaXaXaX",
"aXaXaXaXaXaXaXaXaXaXaXaXaXaXaXaXaXaX1 > t / X./ t > 1 aXaXaXaXaXaXaXaXaXaXaXaXaXaXaXaXaXaXaXaXaX",
"aXaXaXaXaXaXaXaXaXaXaXaXaXaXaXaXaXaXaXaXaXaXaXaXaXaXaXaXaXaXaXaXaXaXaXaXaXaXaXaXaXaXaXaXaXaXaXaX",
"aXaXaXaXaXaXaXaXaXaXaXaXaXaXaXaXaXaXaXaXaXaXaXaXaXaXaXaXaXaXaXaXaXaXaXaXaXaXaXaXaXaXaXaXaXaXaXaX",
"aXaXaXaXaXaXaXaXaXaXaXaXaXaXaXaXaXaXaXaXaXaXaXaXaXaXaXaXaXaXaXaXaXaXaXaXaXaXaXaXaXaXaXaXaXaXaXaX",
"aXaXaXaXaXaXaXaXaXaXaXaXaXaXaXaXaXaXaXaXaXaXaXaXaXaXaXaXaXaXaXaXaXaXaXaXaXaXaXaXaXaXaXaXaXaXaXaX",
"aXaXaXaXaXaXaXaXaXaXaXaXaXaXaXaXaXaXaXaXaXaXaXaXaXaXaXaXaXaXaXaXaXaXaXaXaXaXaXaXaXaXaXaXaXaXaXaX",
"aXaXaXaXaXaXaXaXaXaXaXaXaXaXaXaXaXaXaXaXaXaXaXaXaXaXaXaXaXaXaXaXaXaXaXaXaXaXaXaXaXaXaXaXaXaXaXaX",
"aXaXaXaXaXaXaXaXaXaXaXaXaXaXaXaXaXaXaXaXaXaXaXaXaXaXaXaXaXaXaXaXaXaXaXaXaXaXaXaXaXaXaXaXaXaXaXaX",
"aXaXaXaXaXaXaXaXaXaXaXaXaXaXaXaXaXaXaXaXaXaXaXaXaXaXaXaXaXaXaXaXaXaXaXaXaXaXaXaXaXaXaXaXaXaXaXaX",
"aXaXaXaXaXaXaXaXaXaXaXaXaXaXaXaXaXaXaXaXaXaXaXaXaXaXaXaXaXaXaXaXaXaXaXaXaXaXaXaXaXaXaXaXaXaXaXaX"
};
