/* XPM */
static char *result[] = {
/* columns rows colors chars-per-pixel */
"48 48 215 2 ",
"   c #303E3F",
".  c #2B3D45",
"X  c #2E3F48",
"o  c #333E44",
"O  c #343E48",
"+  c #3A3F48",
"@  c #383D47",
"#  c #393E58",
"$  c #433E48",
"%  c #4C3E48",
"&  c #483A46",
"*  c #523C47",
"=  c #5C3D48",
"-  c #553C47",
";  c #623544",
":  c #653946",
">  c #653C48",
",  c #6A3C49",
"<  c #693946",
"1  c #2E4048",
"2  c #344046",
"3  c #3C4347",
"4  c #314048",
"5  c #3A4149",
"6  c #3F484A",
"7  c #3C4152",
"8  c #434548",
"9  c #4C4448",
"0  c #494949",
"q  c #564549",
"w  c #55534A",
"e  c #424257",
"r  c #45435B",
"t  c #4C445F",
"y  c #574C59",
"u  c #47575B",
"i  c #525757",
"p  c #6C4446",
"a  c #6E424A",
"s  c #66424C",
"d  c #744B45",
"f  c #71434B",
"g  c #794849",
"h  c #6D5148",
"j  c #7C5543",
"k  c #7E554D",
"l  c #664A56",
"z  c #764C51",
"x  c #67545D",
"c  c #7B5A56",
"v  c #5D6153",
"b  c #5B655E",
"n  c #75665D",
"m  c #777458",
"M  c #484461",
"N  c #4C446C",
"B  c #4C496B",
"V  c #464364",
"C  c #514A6E",
"Z  c #50476F",
"A  c #4E4774",
"S  c #524973",
"D  c #584B7E",
"F  c #53477A",
"G  c #535174",
"H  c #57527A",
"J  c #5A5A6D",
"K  c #655B63",
"L  c #6C507F",
"P  c #5E6668",
"I  c #5E7377",
"U  c #5E657E",
"Y  c #626568",
"T  c #78676B",
"R  c #64787A",
"E  c #75726F",
"W  c #84554B",
"Q  c #865B4B",
"!  c #945349",
"~  c #9A5749",
"^  c #875D52",
"/  c #874B48",
"(  c #A65A47",
")  c #B25C43",
"_  c #8A634D",
"`  c #8A6756",
"'  c #976B55",
"]  c #9C7554",
"[  c #987355",
"{  c #90694C",
"}  c #B56348",
"|  c #BA6548",
" . c #BA6648",
".. c #A27259",
"X. c #A67654",
"o. c #AD7351",
"O. c #857778",
"+. c #8F706E",
"@. c #C1704B",
"#. c #B8924A",
"$. c #8D8463",
"%. c #A79664",
"&. c #B89A66",
"*. c #A58B7C",
"=. c #B58165",
"-. c #C38456",
";. c #C68848",
":. c #CFA848",
">. c #E1B048",
",. c #CB9B77",
"<. c #CD9E61",
"1. c #CAA164",
"2. c #D0AF69",
"3. c #DABC6F",
"4. c #D5B56D",
"5. c #D9BE71",
"6. c #CDB16C",
"7. c #DCC67D",
"8. c #E4CA7E",
"9. c #5D4E8B",
"0. c #584686",
"q. c #5E4395",
"w. c #5F4299",
"e. c #5F5092",
"r. c #615489",
"t. c #62459B",
"y. c #614A94",
"u. c #695898",
"i. c #784F8C",
"p. c #647381",
"a. c #694BA5",
"s. c #6C4CAB",
"d. c #6547A2",
"f. c #6C57A4",
"g. c #7358AE",
"h. c #7353B4",
"j. c #7552BA",
"k. c #7A59BD",
"l. c #6F4FB1",
"z. c #7762A9",
"x. c #7665A7",
"c. c #7B64B0",
"v. c #7F63BA",
"b. c #7F5CC7",
"n. c #8063BE",
"m. c #B278B9",
"M. c #825DCD",
"N. c #805DC6",
"B. c #865FD6",
"V. c #8563CA",
"C. c #8A6DC8",
"Z. c #8760D6",
"A. c #8A62DA",
"S. c #8863D4",
"D. c #916DDA",
"F. c #9676D9",
"G. c #936BE3",
"H. c #946BE6",
"J. c #9D7BE3",
"K. c #9B73EA",
"L. c #9973E3",
"P. c #8D62E0",
"I. c #A07BEA",
"U. c #A077EF",
"Y. c #A37BF2",
"T. c #A87FF7",
"R. c #77868F",
"E. c #8C8788",
"W. c #918D8D",
"Q. c #9C8989",
"!. c #859799",
"~. c #989E98",
"^. c #AD9986",
"/. c #A99A96",
"(. c #8BA29C",
"). c #A6AB91",
"_. c #B2B699",
"`. c #9BB2AE",
"'. c #A6BCB4",
"]. c #ACB7B0",
"[. c #C2B488",
"{. c #C7B99C",
"}. c #D6B589",
"|. c #B8C5BB",
" X c #CCC697",
".X c #DDCA98",
"XX c #D8C283",
"oX c #E1CC87",
"OX c #E2CD98",
"+X c #E3D495",
"@X c #E9D792",
"#X c #D5D9B3",
"$X c #D4CDA4",
"%X c #E7DDA4",
"&X c #E2DFB5",
"*X c #DFE0B5",
"=X c #EAE1A7",
"-X c #EBEAB9",
";X c #F3F0BB",
":X c #BC99C9",
">X c #BA8EC3",
",X c #A981F7",
"<X c #AD84FC",
"1X c #B187FF",
"2X c #B288FF",
"3X c #C2A3D6",
"4X c #C7ADE6",
"5X c #B3CBC1",
"6X c #ADC8C0",
"7X c #D8E5D6",
"8X c #F1F2C2",
"9X c #F8F8C6",
"0X c #E4EDDD",
"qX c #F0F0C1",
"wX c None",
/* pixels */
"wXwXwXwXwXwXwXwXwXwXwXwXwXwXG G G D D D 0.D D D D D 0.G G G wXwXwXwXwXwXwXwXwXwXwXwXwXwXwXwXwXwX",
"wXwXwXwXwXwXwXwXwXwXwXwX2 2 C.1X,XZ.Z.Z.B.B.Z.Z.Z.Z.Z.U.2XF.5 2 wXwXwXwXwXwXwXwXwXwXwXwXwXwXwXwX",
"wXwXwXwXwXwXwXwXwX2 1 A f.f.S.H.K.U.U.U.U.U.U.Y.U.U.U.K.K.S.0.F V O 2 wXwXwXwXwXwXwXwXwXwXwXwXwX",
"wXwXwXwXwXwXwXwXwX2 2 H A.A.B.B.P.T.<X,XT.<X,X,X,X<X<XP.B.b.s.d.F 5 7 wXwXwXwXwXwXwXwXwXwXwXwXwX",
"wXwXwXwXwXwXwXwXwXO   F Z.Z.Z.Z.Z.Z.A.Z.A.A.A.A.A.Z.Z.Z.B.B.B.Z.l.t.y.wXwXwXwXwXwXwXwXwXwXwXwXwX",
"wXwXwXwXwXwXwXwXM 9.9.g.K.K.P.Z.A.K.K.D.Z.Z.k.j.S.K.K.K.K.G.j.j.j.j.l.F wXwXwXwXwXwXwXwXwXwXwXwX",
"wXwXwXwXwXwXM r B M.P.K.<X1XH.Z.G.<X<XK.B.B.d.t.b.1X1X<X2XK.d.t.k.A.b.S M M wXwXwXwXwXwXwXwXwXwX",
"wXwXwXwXwXwXM r B F.<X<X<X<X<X,X<X<X<XS.d.l.K.I.,X<X1X1X1X<X,X,Xg.B B M M M wXwXwXwXwXwXwXwXwXwX",
"wXwXwXwXwXwXM r S J.1X<X<X1X<X<X<X1X1Xn.F y.I.1X<X<X<XL.D.D.C.C.r.7 e e r e wXwXwXwXwXwXwXwXwXwX",
"wXwXwXwXwXwXt r C J.1X<X<X1X<X1X<X1X1Xz.e C I.1X<X1X<Xk.q.0.M t 7 O 2 2 2 4 wXwXwXwXwXwXwXwXwXwX",
"wXwXwXwXt r y.k.k.Y.1X<X<X<X<X1X<X<X2Xz.e C I.1X1X<X<Xr.# y ~ ' #.:.#.w O 5 wXwXwXwXwXwXwXwXwXwX",
"wXwXwXwXt r f.H.H.,X1X<X<X<X,XY.T.<X2Xg.M D C.F.J.1X,XH   9 ( ( ;.>.:.w X wXwXwXwXwXwXwXwXwXwXwX",
"wXwXwXwXM r c.1X1X1X<X<X1X<XH.Z.G.<X1XV.t.q.B e u.1X<Xr.. $ < , , , , wXwXwXwXwXwXwXwXwXwXwXwXwX",
"wXwXwXwXM r c.2X<XK.H.Y.<X<XG.B.D.T.1XV.w.t.f.g.g.u.u.B 7 y ! ~ g , , wXwXwXwXwXwXwXwXwXwXwXwXwX",
"wXwXwXwXM r c.2X<XA.B.H.<X<XG.M.A.<X<XV.w.d.Z.H.c.i M y V x  .@.! a , wXwXwXwXwXwXwXwXwXwXwXwXwX",
"wXwXwXwXM r c.2X,XD.B.H.1X<Xk.w.h.,X1XV.w.s.K.<X>X4.6.^ ; W 2.3.-.) ) f > , wXwXwXwXwXwXwXwXwXwX",
"wXwXwXwX7 5 x.1X,Xb.j.b.K.K.j.w.h.,X1Xn.F 9.K.1X3X+X+Xn @ n .X+X}.}.,.z > > wXwXwXwXwXwXwXwXwXwX",
"wXwXwXwX4 O x.1XY.s.q.l.B.B.l.w.g.T.1Xz.e B I.<X4X8X;XE . Y -X8X8X9X&Xc ; > wXwXwXwXwXwXwXwXwXwX",
"wXwXwXwX2 2 u.P.A.s.w.l.A.B.9.$ r.,X2Xz.7 C ,X<X3X7.7.$X#X#X;X8X8X9X-Xi O O wXwXwXwXwXwXwXwXwXwX",
"wXwXwXwX2 O e.A.B.e.0.s.Z.B.9.e D D.F.u.1 6 ,X<X>X<.<.oX=X=X=X=X X).).u . wXwXwXwXwXwXwXwXwXwXwX",
"wXwXwXwX2 2 e.A.M.S e 9.B.B.9.e N y.t.N o e ,X,Xm.} | 1.7.4.7.4.m . . wXwXwXwXwXwXwXwXwXwXwXwXwX",
"wXwXwXwXwXwXV A B V t F s.s.N O e U p.R.(.!.c.j.i./ g W _ c v v i wXwXwXwXwXwXwXwXwXwXwXwXwXwXwX",
"wXwXwXwXwXwXwXO 2 e e B q.0.K b P R I R.'.`.x.f.r.< > s l q   o wXwXwXwXwXwXwXwXwXwXwXwXwXwXwXwX",
"wXwXwXwXwXwXwXwXwXO O O X 5 _.9X#XR I R I p.`.|.W.< < Y I Y : < wXwXwXwXwXwXwXwXwXwXwXwXwXwXwXwX",
"wXwXwXwXwXwXwXwXwX- % K ).). X@X_.u 7 i x x T O.T K Y ~.'.].W.W.+.; ; , , wXwXwXwXwXwXwXwXwXwXwX",
"wXwXwXwXwXwXwXwXwXz z *.;X;X}.2.&.6 1 % > = > : y I I |.0X7X6X|.O.< < , , a wXwXwXwXwXwXwXwXwXwX",
"wXwXwXwXwXwXwX; f $XqXOX5.3.` , q 2 1 4 2 2 2 2 O 1 4 (.5X5X7X0XQ.< , (  .! < < wXwXwXwXwXwXwXwX",
"wXwXwXwXwXwX+.*.^.&X8X-X+X+X&.[ { 9 % + 1 1 1 1 9 h h O.E.W././.+./ ! } @.! * % wXwXwXwXwXwXwXwX",
"wXwXwXwXs ; ^.9X8XqXqXqX8XqXoX7.1.f < % 1 2 4 1 h  . ./ , < ; ; ! } } } | k 1 1 wXwXwXwXwXwXwXwX",
"wXwXwXwX5 O $.8.oXqX9X8X8XqX,.@.' 8 2 2 X 5 ! ( o.4.4..X&X{.f < q 8 8 8 8 8 wXwXwXwXwXwXwXwXwXwX",
"wXwXwXwX1 . m %.%.}..XOX%X%Xo.( W 2 1 + + 9 ! ( o.&.&.[.{.^.q = $ 1 X X X wXwXwXwXwXwXwXwXwXwXwX",
"wXwXwXwXwXwXX . + (  .-.3.3.` ; = 2 1 % , > < > p Q j a , - O O wXwXwXwXwXwXwXwXwXwXwXwXwXwXwXwX",
"wXwXwXwXwXwXwXwXwXq q w v v 0 3 3 O 1 q j j _ ' ^ j j 9 + + O X wXwXwXwXwXwXwXwXwXwXwXwXwXwXwXwX",
"wXwXwXwXwXwXwXwXwX1 1 X X X X O 1 4 1 q d j ' ..' W Q q + O O X wXwXwXwXwXwXwXwXwXwXwXwXwXwXwXwX",
"wXwXwXwXwXwXwXwXwXwXwXwX4 4 1 1 1 1 1 % , a ' ....X.] g , = 2 1 wXwXwXwXwXwXwXwXwXwXwXwXwXwXwXwX",
"wXwXwXwXwXwXwXwXwXwX4 4 4 4 $ * % 4 1 % , , z W W _ _ O.W.E q % = > > + 1 wXwXwXwXwXwXwXwXwXwXwX",
"wXwXwXwXwXwXwXwXwX2 4 4 2 2 q , = 5 2 % > > , ; f Q c ~.'.~.h a a a s 5 1 4 wXwXwXwXwXwXwXwXwXwX",
"wXwXwXwXwXwXwX1 1 4 1 $ > > d W j > : % 2 O > < O.'.'.T > z [ ] ] ] { 6 1 1 4 1 wXwXwXwXwXwXwXwX",
"wXwXwXwXwXwX4 4 4 4 1 + 9 * p d d p d 9 1 1 % % x E.E.` W k { { ` ^ W 3 1 4 4 4 4 wXwXwXwXwXwXwX",
"wXwXwXwX4 4 1 4 4 1 4 4 X 1 - , p j j q X 1 1 1 $ ; ; { X.[ j j p > = 5 1 1 1 4 1 4 4 wXwXwXwXwX",
"wXwXwXwX1 4 4 4 4 1 1 4 4 4 2 + 5 3 3 2 4 4 4 1 4 5 5 8 8 6 3 3 5 5 + 4 1 4 4 4 4 4 4 wXwXwXwXwX",
"wXwXwXwX4 4 1 1 4 4 4 4 1 4 4 1 1 1 2 1 4 1 4 1 4 1 1 1 1 O 1 1 X 1 1 4 4 4 1 1 1 4 4 wXwXwXwXwX",
"wXwXwXwXwXwX4 4 1 4 4 1 1 4 4 4 4 1 4 4 4 4 4 4 4 4 1 4 1 4 4 4 4 4 4 1 4 4 4 4 wXwXwXwXwXwXwXwX",
"wXwXwXwXwXwXwXwXwXwXwX4 4 4 1 4 4 1 4 1 4 1 1 4 4 1 4 4 1 4 1 4 1 4 4 wXwXwXwXwXwXwXwXwXwXwXwXwX",
"wXwXwXwXwXwXwXwXwXwXwXwX4 4 4 1 4 4 4 4 1 4 4 4 4 4 4 1 4 4 1 4 4 4 4 wXwXwXwXwXwXwXwXwXwXwXwXwX",
"wXwXwXwXwXwXwXwXwXwXwXwXwXwXwXwXwXwXwXwXwXwXwXwXwXwXwXwXwXwXwXwXwXwXwXwXwXwXwXwXwXwXwXwXwXwXwXwX",
"wXwXwXwXwXwXwXwXwXwXwXwXwXwXwXwXwXwXwXwXwXwXwXwXwXwXwXwXwXwXwXwXwXwXwXwXwXwXwXwXwXwXwXwXwXwXwXwX",
"wXwXwXwXwXwXwXwXwXwXwXwXwXwXwXwXwXwXwXwXwXwXwXwXwXwXwXwXwXwXwXwXwXwXwXwXwXwXwXwXwXwXwXwXwXwXwXwX"
};
