/* XPM */
static char *result[] = {
/* columns rows colors chars-per-pixel */
"48 48 2 1 ",
"  c #7B795A",
". c #948E6B",
/* pixels */
"...............    ............................ ",
"...............  .............................. ",
"...............  .............................. ",
".........  ..........  ..................  .....",
".........  ..........  ..................  .....",
".......      ..........................      ...",
".......      ..........................      ...",
"...        ........................        .....",
"...        ........................        .....",
".......  ....  ........  ..............  ....  .",
".......  ....  ........  ..............  ....  .",
"...........  ............  ................  ...",
"...........  ............  ................  ...",
".............  ..............................  .",
".............  ..............................  .",
".............    ..........  ................   ",
".............    ..........  ................   ",
".............  ............  ................  .",
".............  ............  ................  .",
"...........  ..  ..........................  .. ",
"...........  ..  ..........................  .. ",
"...  ........      ......  ........  ........   ",
"...  ........      ......  ........  ........   ",
".  ....................  ........  .............",
".  ....................  ........  .............",
"...  ..............................  ...........",
"...  ..............................  ...........",
"................................................",
"................................................",
".......  ......    ....................  ...... ",
".......  ......    ....................  ...... ",
"...............    ............................ ",
"...............    ............................ ",
"...............  .............................. ",
"...............  .............................. ",
".........  ..........  ..................  .....",
".........  ..........  ..................  .....",
".......      ..........................      ...",
".......      ..........................      ...",
"...        ........................        .....",
"...        ........................        .....",
".......  ....  ........  ..............  ....  .",
".......  ....  ........  ..............  ....  .",
"...........  ............  ................  ...",
"...........  ............  ................  ...",
".............  ..............................  .",
".............  ..............................  .",
".............    ..........  ................   "
};
