/* XPM */
static char *result[] = {
/* columns rows colors chars-per-pixel */
"48 48 202 2 ",
"   c #2B3D46",
".  c #2D3F48",
"X  c #323E43",
"o  c #333F49",
"O  c #3C3F48",
"+  c #3E3F47",
"@  c #3C3F59",
"#  c #443E48",
"$  c #4D3E4A",
"%  c #453C46",
"&  c #543C46",
"*  c #513D48",
"=  c #5B3D48",
"-  c #5D3747",
";  c #633443",
":  c #663947",
">  c #6A3A46",
",  c #653C48",
"<  c #693D48",
"1  c #683747",
"2  c #663E59",
"3  c #2E4048",
"4  c #344046",
"5  c #3C4247",
"6  c #314048",
"7  c #3A434A",
"8  c #3C494B",
"9  c #3C4152",
"0  c #3E415B",
"q  c #3B4B51",
"w  c #414347",
"e  c #4A4649",
"r  c #5D4D45",
"t  c #534848",
"y  c #56574D",
"u  c #404256",
"i  c #44435B",
"p  c #48445F",
"a  c #5C5C50",
"s  c #495558",
"d  c #654347",
"f  c #6E4347",
"g  c #6B4D45",
"h  c #6D434A",
"j  c #654F47",
"k  c #714746",
"l  c #754B45",
"z  c #724449",
"x  c #744C4B",
"c  c #7B4F4B",
"v  c #784945",
"b  c #7C5543",
"n  c #785749",
"m  c #674A54",
"M  c #65525B",
"N  c #7A5B57",
"B  c #6C5047",
"V  c #7E6351",
"C  c #78775B",
"Z  c #666855",
"A  c #434463",
"S  c #494461",
"D  c #464469",
"F  c #4D456B",
"G  c #55496A",
"H  c #565F63",
"J  c #4E4374",
"K  c #4E4279",
"L  c #544B73",
"P  c #52447B",
"I  c #554C7A",
"U  c #525173",
"Y  c #607477",
"T  c #894C48",
"R  c #835B45",
"E  c #84544B",
"W  c #845D4A",
"Q  c #845645",
"!  c #825F5F",
"~  c #9D5B46",
"^  c #B05C47",
"/  c #8A624B",
"(  c #84604C",
")  c #926C4D",
"_  c #9C724E",
"`  c #986C55",
"'  c #9E7A5B",
"]  c #997354",
"[  c #8D6451",
"{  c #B96B4B",
"}  c #B76147",
"|  c #A06F58",
" . c #A17F55",
".. c #A27A5A",
"X. c #B06F4F",
"o. c #846161",
"O. c #977768",
"+. c #8E746D",
"@. c #C06748",
"#. c #AC825B",
"$. c #A38159",
"%. c #BC8459",
"&. c #958B60",
"*. c #9F8568",
"=. c #9E947E",
"-. c #A2816D",
";. c #B99764",
":. c #A2947D",
">. c #A79763",
",. c #BCAE7F",
"<. c #C78959",
"1. c #CA975F",
"2. c #C29D65",
"3. c #CF9B61",
"4. c #CBA869",
"5. c #D4AD69",
"6. c #CEB46C",
"7. c #D2B46C",
"8. c #D9BE6F",
"9. c #DABE71",
"0. c #D4BB75",
"q. c #C4AD7F",
"w. c #DBC172",
"e. c #DFC478",
"r. c #E2C779",
"t. c #554284",
"y. c #5B448C",
"u. c #574686",
"i. c #5E4394",
"p. c #5F4892",
"a. c #5F4398",
"s. c #61459B",
"d. c #634B99",
"f. c #665794",
"g. c #7D529F",
"h. c #6F4E97",
"j. c #6647A3",
"k. c #674AA3",
"l. c #6849A7",
"z. c #6B4BAA",
"x. c #6B52A4",
"c. c #6F58A8",
"v. c #6F4DB0",
"b. c #7251B4",
"n. c #765BB3",
"m. c #7654BB",
"M. c #7855BF",
"N. c #7A5BBA",
"B. c #7559B8",
"V. c #714FB4",
"C. c #7C59C5",
"Z. c #7C57C6",
"A. c #856BBD",
"S. c #825CCE",
"D. c #865ED6",
"F. c #895FDA",
"G. c #8263C4",
"H. c #8968CA",
"J. c #8760D7",
"K. c #8962D7",
"L. c #8D69D3",
"P. c #8961DA",
"I. c #8F6AD9",
"U. c #926DDA",
"Y. c #9275D2",
"T. c #8C62E0",
"R. c #936BE3",
"E. c #986FE7",
"W. c #986FE9",
"Q. c #9C74EC",
"!. c #9975E1",
"~. c #9D72F0",
"^. c #A27CEC",
"/. c #A47CF3",
"(. c #A87FF7",
"). c #A47BF4",
"_. c #7A8E8C",
"`. c #969589",
"'. c #B39E8A",
"]. c #9DA79C",
"[. c #BBA992",
"{. c #9BB3AD",
"}. c #A7BCB2",
"|. c #A9B6A9",
" X c #CCBD97",
".X c #A9C3BB",
"XX c #AEC2B7",
"oX c #DAC98B",
"OX c #D2C79E",
"+X c #E5D494",
"@X c #CCC8A6",
"#X c #D3CAA7",
"$X c #E8DEA3",
"%X c #EEEDBB",
"&X c #E7E4B6",
"*X c #A580EF",
"=X c #AD84FC",
"-X c #A580F0",
";X c #B087FF",
":X c #B289FF",
">X c #F1F2C2",
",X c None",
/* pixels */
",X,X,X,X,X,X,X,X,X,X,X,X,X,X,X,X,X,X,X,X,X,X,X,X,X,X,X,X,X,X,X,X,X,X,X,X,X,X,X,X,X,X,X,X,X,X,X,X",
",X,X,X,X,X,X,X,X,X,X,X,X,X,X,X,X,X,X,X,X,X,X,X,X,X,X,X,X,X,X,X,X,X,X,X,X,X,X,X,X,X,X,X,X,X,X,X,X",
",X,X,X,X,X,X,X,X,X,X,X,X,X,X4 o 4 4 7 i S S S S S S u 4 7 4 4 ,X,X,X,X,X,X,X,X,X,X,X,X,X,X,X,X,X",
",X,X,X,X,X,X,X,X,X,X,X,Xp p P u.d.B.B.s.y.y.y.y.y.y.x.M.v.y.u.F p ,X,X,X,X,X,X,X,X,X,X,X,X,X,X,X",
",X,X,X,X,X,X,X,X,X,X,X,XF F p.z.b.F.F.b.z.z.z.z.z.z.Z.P.D.z.z.P F S ,X,X,X,X,X,X,X,X,X,X,X,X,X,X",
",X,X,X,X,X,X,X,X,X,X4 9 i.a.M.P.D.P.D.D.D.D.J.J.K.P.P.P.J.J.J.z.s.L 4 4 ,X,X,X,X,X,X,X,X,X,X,X,X",
",X,X,X,X,X,X,X,X,X,Xu S H.I.K.J.P.P.P.Q.~.R.J.P.D.F.P.P.K.P.K.I.U.c.9 i ,X,X,X,X,X,X,X,X,X,X,X,X",
",X,X,X,X,X,X,X,X,X,XS I ^.;XQ.P.P.P.P.(.:X).P.P.P.P.P.P.P.P.P./.:XG.S S ,X,X,X,X,X,X,X,X,X,X,X,X",
",X,X,X,X,X,X,X4 4 D s.d./.:X=X=X=X=X=X=X=X=X(.=X=X=X=X-X=X=X=X=X:XL.p.y.9 6 ,X,X,X,X,X,X,X,X,X,X",
",X,X,X,X,X,X,X9 9 P b.m.Q.~.-X;X=X=X=X=X=X=X=X=X).Q.=X=X=X=X=X).).K.v.z.i 9 ,X,X,X,X,X,X,X,X,X,X",
",X,X,X,X,X,X,Xp i d.P.P.P.D.Q.=X=X=X=X=X=X=X=X(.P.D.Q.;X=X=X=XR.D.F.P.S.F p ,X,X,X,X,X,X,X,X,X,X",
",X,X,X,X,X4 4 t.y.N.(.).P.P.P.R.W.=X=XE.R.R.R.R.P.J.Q.:X).R.R.D.D.E.-XQ.s.p.D 6 4 ,X,X,X,X,X,X,X",
",X,X,X,X,X4 4 d.z.H.;X=XP.D.D.D.P.(.).P.D.D.D.D.P.D.Q.(.Q.F.D.P.D.E.=X(.b.z.F o 7 ,X,X,X,X,X,X,X",
",X,X,X,X,X4 4 n.F.E.;X(.P.D.D.D.P.P.P.P.P.D.P.D.D.J.D.J.D.D.D.D.D.E.=X=XP.P.u.X o ,X,X,X,X,X,X,X",
",X,X,Xp F P P M.F.E.;X=XP.F.E.).Q.J.P.K.D.P.P.P.P.D.J.J.P.~.~.I.D.E.;X-XP.P.d.K J S S ,X,X,X,X,X",
",X,XS p J j.j.S.P.W.;X(.I.F.Q.:X).P.F.D.P.P.P.P.D.P.P.P.R.=X=XR.D.Q.=X=XR.P.m.l.p.S S ,X,X,X,X,X",
",X,XS i I S.D.^.=X=X;X=XP.D.Q.;X).P.D.D.D.R.=X(.P.F.K.D.R.=X=XP.D.E.=X=X=X=XE.D.b.S p ,X,X,X,X,X",
",X,Xu 9 I R.E.=X=X(.Q.Q.E.E.(.;X/.P.P.R.E.).=X(.P.D.F.D.R.=X=XQ.E.Q.Q.).=X=XQ.Q.G.i u ,X,X,X,X,X",
",X,X4 X I =X=X=X;XQ.D.P.=X=X=X;X).P.P.(.;X;X;X(.P.F.F.D.R.=X=X;X:XQ.D.P.=X=X=X:XY.7 4 ,X,X,X,X,X",
",X,XO X A c.B.Q.:XU.l.b.(.=X=X;X(.F.K.).;X=X=X=XI.P.M.l.M.=X;X=X;XU.l.v./.=XL.b.d.4 4 ,X,X,X,X,X",
",X,X,X4 0 u.y.!.:XL.y.d./.;X(.).Q.J.P./.;X=X;X(.P.P.v.a.b././.=X:XL.u.d.*X:XN.t.P 7 4 ,X,X,X,X,X",
",X,X,X,X,X6 7 Y.:XA.i G ^.;XQ.D.D.P.P.(.;X;X;X(.P.J.b.a.z.K.P./.:XA.i L *X:Xf.X 7 ,X,X,X,X,X,X,X",
",X,X,X,X,X7 7 N.Q.n.i G U.W.I.P.D.b.V.P.E.^.=X(.P.P.b.a.z.J.K.R.Q.n.i F N.G.I o o ,X,X,X,X,X,X,X",
",X,X,X,X,X6 7 b.R.x.i F C.D.F.P.Z.s.s.C.D.R.=X(.R.P.b.s.z.D.J.D.J.h.i S s.s.D 6 6 ,X,X,X,X,X,X,X",
",X,X,X,X,X,X,X,X,X,X4 @ a.j.C.P.D.s.s.j.j.m.P.P.D.F.b.a.z.J.J.v.k.P o o ,X,X,X,X,X,X,X,X,X,X,X,X",
",X,X,X,X,X,X,X,X,X= $ e J K p.g.h.s.s.s.s.b.P.J.D.P.b.a.l.M.C.y.P G g B ,X,X,X,X,X,X,X,X,X,X,X,X",
",X,X,X,X,X,X,X< < < h d 5 3 t > 2 s.s.s.i.b.P.J.J.J.b.a.s.a.i.0 6 B { } z < ,X,X,X,X,X,X,X,X,X,X",
",X,X,X,X,X,X,X: ; +.#X#X@X@X+.; = 0 0 @ @ A A A D D A 0 0 0 i E ~ X.5.2.z , ,X,X,X,X,X,X,X,X,X,X",
",X,X,X,X,X,X,Xo.o.'.>X>X>X>X'.o.N # 5 y a y e t y y e + 5 o 4 E ^ %.0.7.T z z ,X,X,X,X,X,X,X,X,X",
",X,X,X,X,X< < @X>X%X>X>X>X>X%X>X@X< < ;.w.1.} { 7.w.` ; & o o = : ] w.7.{ } T : < ,X,X,X,X,X,X,X",
",X,X,X,X,X# e q.+X$X>X%X>X>X$X+X Xh < ;.w.5.1.4.+X$X X[.:.j r e # N <.<.3.3.V + w ,X,X,X,X,X,X,X",
",X,X,X,X,X. 6 >.6.oX%X%X%X%XoX7.#.< h ;.7.7.6.0.&X&X&X%XOX/ R e . B } { 4.6.C   6 ,X,X,X,X,X,X,X",
",X,X,X,X,X,X,X8 7 C r.r.e.r.' < h , > f h x R R W ( ( W ] 7.7.N - T @.^ e 8 ,X,X,X,X,X,X,X,X,X,X",
",X,X,X,X,X,X,X,X. Z &.&.&.&.V k f l l c c [ $. .$. .$.' #.2.4.n ; k Q n 5 . ,X,X,X,X,X,X,X,X,X,X",
",X,X,X,X,X,X,X,X,X,X. .     r Q b b b ` | ;.9.9.9.9.8.w.4.| | k < $ 3 3 ,X,X,X,X,X,X,X,X,X,X,X,X",
",X,X,X,X,X,X,X,X,X,X,X,X= = , f l b b W W / ) ) .. .#.#...R Q g < , ,X,X,X,X,X,X,X,X,X,X,X,X,X,X",
",X,X,X,X,X,X,X,X,X,X,X,X= = , < h n V B b l B B ..-.-.-.O.b b d = = ,X,X,X,X,X,X,X,X,X,X,X,X,X,X",
",X,X,X,X,X,X,X,X,X,X,X,X3 3 $ > m Y Y m > &   8 }..X.XXX].b b 5 . . ,X,X,X,X,X,X,X,X,X,X,X,X,X,X",
",X,X,X,X,X,X,X,X,X,X3 4 t & d l l M M e % H _._.`.:.:.:.:.`.`.s . o . 6 ,X,X,X,X,X,X,X,X,X,X,X,X",
",X,X,X,X,X,X,X,X,X,Xo o , > l b l : > 5   Y XX|..._ _ _ -.}.}.H X o o . ,X,X,X,X,X,X,X,X,X,X,X,X",
",X,X,X,X,X,X,X6 6 6 3 4 n b k < < < , O   a -.' R b R Q ( $...x : $ 3 6 6 6 ,X,X,X,X,X,X,X,X,X,X",
",X,X,X,X,X,X,X3 6 3 . 5 g v l f f < < + 3 t [ W j r g k n ) ) l k t 3 3 3 3 6 ,X,X,X,X,X,X,X,X,X",
",X,X,X,X,X6 3 6 6 3 3 4 , < l b b , , 5 3 # < = 4 3 $ < f b b b Q r 3 6 6 3 3 6 6 ,X,X,X,X,X,X,X",
",X,X,X,X,X3 6 3 3 6 6 6 O 5 5 w w O + 6 3 4 O # = = , < > h f e 5 5 3 6 3 6 6 3 3 ,X,X,X,X,X,X,X",
",X,X,X,X,X6 3 6 3 6 6 3 3 3 3 3 3 3 3 3 6 6 3 4 & = = = = = = O 3 3 6 3 6 6 3 6 6 ,X,X,X,X,X,X,X",
",X,X,X,X,X,X,X6 6 3 6 6 3 3 6 6 6 3 6 6 3 3 6 3 6 6 6 6 6 3 3 6 3 6 3 6 3 6 ,X,X,X,X,X,X,X,X,X,X",
",X,X,X,X,X,X,X,X,X,X,X,X6 3 3 6 3 6 6 3 6 3 3 6 6 3 6 3 3 6 3 6 6 3 ,X,X,X,X,X,X,X,X,X,X,X,X,X,X",
",X,X,X,X,X,X,X,X,X,X,X,X3 6 6 3 6 3 6 6 3 6 6 3 6 6 3 6 6 3 6 6 6 6 ,X,X,X,X,X,X,X,X,X,X,X,X,X,X"
};
