/* XPM */
static char *result[] = {
/* columns rows colors chars-per-pixel */
"48 48 52 1 ",
"  c #273A3F",
". c #273A40",
"X c #293C42",
"o c #2C3F48",
"O c #2E414A",
"+ c #31454F",
"@ c #364A5D",
"# c #384C5F",
"$ c #374A61",
"% c #3A4D64",
"& c #3C5065",
"* c #3E5269",
"= c #415166",
"- c #45546C",
"; c #445E73",
": c #4A5B73",
"> c #4C5F78",
", c #466075",
"< c #486277",
"1 c #4E657B",
"2 c #50677D",
"3 c #51687E",
"4 c #506780",
"5 c #536B83",
"6 c #576D88",
"7 c #586F8A",
"8 c #56718A",
"9 c #5A738D",
"0 c #5C7691",
"q c #5D7B92",
"w c #607F96",
"e c #5E809B",
"r c #618097",
"t c #618199",
"y c #6186A2",
"u c #638AA7",
"i c #658DAA",
"p c #6A99A7",
"a c #6791A9",
"s c #6994AD",
"d c #6D9CAB",
"f c #6FA1B0",
"g c #72A6B3",
"h c #74A9B5",
"j c #77ACBA",
"k c #79AFBD",
"l c #79B1BF",
"z c #7BB4C2",
"x c #7DB8C3",
"c c #80BDC7",
"v c #81BEC8",
"b c None",
/* pixels */
"bbbbbbXXXX X@$,gxxxxlxxxxxxxlxxvg;#@oXXXXXbbbbbb",
"bbbbbbXXXXXO@$;gxxxxxxxxxxxxxxlcg;#@oXXXXXbbbbbb",
"bbbbbbXXXX O#%,gxxxxzxxxxxxxxxccg,%#oXXXXXbbbbbb",
"bbbbbbXXXXXO&-1hxxxxxxxxlxxxxxlcg1-&o XXXXbbbbbb",
"bbbbbbXXXXXO--3hxxxxxxxxlclcllcch3;-OXXXXXbbbbbb",
"bbbbbbooXX O&-1hvxxxxxxxclcccclcg1-%O.XXXXbbbbbb",
"bbbbbb@@@X o#%<hxxxxxxxxxxcllcccg,$@O.XXXXbbbbbb",
"bbbbbb%%@O O@@*gvxxxxxxxxxlccvlcg;@@O..XXXbbbbbb",
"bbbbbb@@@OoO&&<fzlllllzlllzllkkkd<&&OOO.XXbbbbbb",
"bbbbbbooO@@%269assssssssppsssatqq663&@+OXXbbbbbb",
"bbbbbbX o@$*690yuuuuuuuuuuuuuy066998*$#OXXbbbbbb",
"bbbbbbXXO%*;0rtasssssssspssssstqrrr9-&$O Xbbbbbb",
"bbbbbbX O169gjllzllzlllllllzzzjjjjld2==OXXbbbbbb",
"bbbbbbX +59rlxxxxxxxxxxxxxxxxxxxxcch2-=OXXbbbbbb",
"bbbbbbo +39rjxxxxxzxzxxxxxxzzxxxlcch3:-+XXbbbbbb",
"bbbbbbX +59ejxxxxxxxxxxxxxxxxxxxclck062+ Xbbbbbb",
"bbbbbb  +39rhxxxxxxxxxlcxllcclclxzxjr05+  bbbbbb",
"bbbbbbo +39rhxxxzxxxxxclxccllcxcxxxjr93+ Obbbbbb",
"bbbbbb  +39rjcxxxxxzxxxlllccxxxxxxxjr92+  bbbbbb",
"bbbbbbo +39rjxxxxxxxxxxxcclcxclxxzcjr93+ Obbbbbb",
"bbbbbbo +3qrjcxxlxxxxxxxxxlxxcxxxzcjq62+ Xbbbbbb",
"bbbbbb  +30rhxxxxxxxxxxxxxxxxlxxxxch3:-O Xbbbbbb",
"bbbbbb  +30rjcxxxxxlxxxxxxxxxxlczxch2-=O Xbbbbbb",
"bbbbbb  +26qhxxxxxxxxlxxxxxclxxxzcch2-=OXXbbbbbb",
"bbbbbbo O-:3hcxxxxxxxxxxxxxxxxxlxxch2-=O  bbbbbb",
"bbbbbbo O=-3hcxxlxxxxxxxxxxxxxxxxxch2-=o Obbbbbb",
"bbbbbb  O-:3hcxxxxxxlxxxxxxxxxxxxxch3:-O Obbbbbb",
"bbbbbbo +33rjcxxxxxxxxxxlxxxxxxxlxxjw62+  bbbbbb",
"bbbbbbX +3rrjxxxxxxxxxlxxxxxxxlxlxckr95+ Xbbbbbb",
"bbbbbbXX+33rjxxxxxxxxxxxxxxxxxxxxxxjq82+ Xbbbbbb",
"bbbbbbX O-;3hcxxxxxxxxxxxlxxxxxxxxch3:-OXXbbbbbb",
"bbbbbbXXO=-3hvxccxxxccxccxxcxccxccvj3-=OXXbbbbbb",
"bbbbbbXXo=-1phhgfgggfhhhjljhgjghhhhp1-&OXXbbbbbb",
"bbbbbbXXo#%=121:;;;,,2150rq311121;;;&&$o Xbbbbbb",
"bbbbbbX o@%%---$@$$$$--:696:-----$$$%%@oXXbbbbbb",
"bbbbbbXXo@##---%%%%**--:586:::-;-%%$@@@oXXbbbbbb",
"bbbbbbXXXooO%%%%%%*----:::>575*%%%%$Ooo.XXbbbbbb",
"bbbbbbX .. o@%%%%*----:---:606&$$%%@oX. XXbbbbbb",
"bbbbbboooXXo@%%***:11:::>11906-**%%@o.Xooobbbbbb",
"bbbbbb##@oXo@%*269quq969etq099662*%@o o@@@bbbbbb",
"bbbbbb%&@oXo@%*59quay080uiu988996*%@o o@%%bbbbbb",
"bbbbbb@@+o.o@%*9rrpsatqtasatwwrr9*%@o o@##bbbbbb",
"bbbbbbOooXXo@$;dkjlllkjklzkjkjkld;$@o Xooobbbbbb",
"bbbbbb  .X.o@$,hvcxccxxxcxcxxcxvg,$@oXX XXbbbbbb",
"bbbbbbOOOX O@$,fcxxxxcxcxxxzxxxxg;@@oXXXXXbbbbbb",
"bbbbbb##@X O@$,hcxxlxlxlxxxxxxxxg,$@oXXXXXbbbbbb",
"bbbbbb%%@O.O@$,fclxxxxcxlcxlxxxcg,$@o XXXXbbbbbb",
"bbbbbb%%@X O@$,gcclxcllxclxcxxxxf,$@oXXXXXbbbbbb"
};
