/* XPM */
static char *_588bd341d044b35c489cbdb855bf5d0Om0qayUwf1KBzzSM[] = {
/* columns rows colors chars-per-pixel */
"48 48 248 2 ",
"   c None",
".  c #24363B",
"X  c #25363B",
"o  c #25373C",
"O  c #26373C",
"+  c #26373D",
"@  c #26383C",
"#  c #26383D",
"$  c #26393D",
"%  c #26383E",
"&  c #27393E",
"*  c #273A3E",
"=  c #273A3F",
"-  c #283B3F",
";  c #273A40",
":  c #283A40",
">  c #283B40",
",  c #283B41",
"<  c #283A42",
"1  c #293B43",
"2  c #293C41",
"3  c #293C42",
"4  c #293C43",
"5  c #2A3D43",
"6  c #2A3C44",
"7  c #2A3D44",
"8  c #2A3E44",
"9  c #2B3E45",
"0  c #2A3D46",
"q  c #2B3E47",
"w  c #2C3D46",
"e  c #2C3F48",
"r  c #2D4048",
"t  c #2E4049",
"y  c #2E414C",
"u  c #2E424C",
"i  c #2F424D",
"p  c #30434C",
"a  c #30444C",
"s  c #31454E",
"d  c #31454F",
"f  c #32464F",
"g  c #324750",
"h  c #324651",
"j  c #334952",
"k  c #334853",
"l  c #364E55",
"z  c #364F56",
"x  c #334659",
"c  c #34465A",
"v  c #34475B",
"b  c #344859",
"n  c #35485B",
"m  c #364D59",
"M  c #35495C",
"N  c #36495D",
"B  c #364A5D",
"V  c #35485E",
"C  c #36485F",
"Z  c #36495F",
"A  c #364A5E",
"S  c #374B5E",
"D  c #365056",
"F  c #365057",
"G  c #375057",
"H  c #375157",
"J  c #375158",
"K  c #39535C",
"L  c #3A535C",
"P  c #364960",
"I  c #374960",
"U  c #374A60",
"Y  c #374A61",
"T  c #374B61",
"R  c #384B61",
"E  c #394B61",
"W  c #384B62",
"Q  c #394C60",
"!  c #384C62",
"~  c #384D62",
"^  c #394D62",
"/  c #384D63",
"(  c #394D63",
")  c #3E4F61",
"_  c #3E4F62",
"`  c #394D64",
"'  c #394E64",
"]  c #3A4E64",
"[  c #3B4E64",
"{  c #3A4E65",
"}  c #3B4E65",
"|  c #3B4F65",
" . c #3B4F66",
".. c #3C4F66",
"X. c #3B5064",
"o. c #3C5165",
"O. c #3D5067",
"+. c #3E5369",
"@. c #3F546B",
"#. c #415066",
"$. c #425267",
"%. c #43526A",
"&. c #42536A",
"*. c #43546B",
"=. c #40556C",
"-. c #45546C",
";. c #44556C",
":. c #45556C",
">. c #44556D",
",. c #45556D",
"<. c #46546D",
"1. c #45566D",
"2. c #47556E",
"3. c #45566E",
"4. c #46566E",
"5. c #47566E",
"6. c #47576F",
"7. c #48576F",
"8. c #415A6C",
"9. c #415B6E",
"0. c #475A6F",
"q. c #425D6E",
"w. c #475971",
"e. c #435D72",
"r. c #445E72",
"t. c #445F73",
"y. c #455F74",
"u. c #485870",
"i. c #495972",
"p. c #485A72",
"a. c #4A5C74",
"s. c #4B5C74",
"d. c #4B5C75",
"f. c #456075",
"g. c #466075",
"h. c #4A6073",
"j. c #4A6074",
"k. c #4B6276",
"l. c #4E667B",
"z. c #4F677F",
"x. c #50677D",
"c. c #50677E",
"v. c #50687D",
"b. c #51687E",
"n. c #526A80",
"m. c #526A81",
"M. c #536B81",
"N. c #526982",
"B. c #526983",
"V. c #536B82",
"C. c #536B83",
"Z. c #556A85",
"A. c #536D84",
"S. c #546C85",
"D. c #556D86",
"F. c #556E87",
"G. c #566E88",
"H. c #576E88",
"J. c #586E89",
"K. c #586F89",
"L. c #586E8A",
"P. c #577388",
"I. c #5A718C",
"U. c #5A738D",
"Y. c #5A738E",
"T. c #59768D",
"R. c #5B748E",
"E. c #5A748F",
"W. c #5B748F",
"Q. c #5B778E",
"!. c #5C758F",
"~. c #5C7590",
"^. c #5C7690",
"/. c #5D7792",
"(. c #5D7B92",
"). c #5D7894",
"_. c #597C94",
"`. c #5E7C96",
"'. c #5A7F98",
"]. c #607F96",
"[. c #617F97",
"{. c #5F869C",
"}. c #618097",
"|. c #618098",
" X c #61829A",
".X c #6185A2",
"XX c #6286A2",
"oX c #638AA7",
"OX c #648AA7",
"+X c #648BA8",
"@X c #678FA9",
"#X c #668EAC",
"$X c #6796A2",
"%X c #6A98A6",
"&X c #6A9AA6",
"*X c #6B9AA7",
"=X c #6791A9",
"-X c #6994AD",
";X c #6994AE",
":X c #6995AE",
">X c #6D9CAB",
",X c #6A96B0",
"<X c #6C9AB1",
"1X c #6FA3AD",
"2X c #6EA0AE",
"3X c #6FA4AE",
"4X c #70A5AE",
"5X c #70A5AF",
"6X c #70A6B0",
"7X c #71A6B2",
"8X c #71A6B3",
"9X c #72A6B3",
"0X c #72A7B4",
"qX c #74A7B5",
"wX c #73A8B4",
"eX c #73A9B6",
"rX c #74A8B5",
"tX c #74A9B6",
"yX c #76ABB8",
"uX c #76ABB9",
"iX c #75AABA",
"pX c #77ACB9",
"aX c #77ACBA",
"sX c #77ADBB",
"dX c #79B0BD",
"fX c #79B0BE",
"gX c #79B1BF",
"hX c #7AB0BE",
"jX c #7AB2BF",
"kX c #7AB2C0",
"lX c #7BB4C2",
"zX c #7CB7C2",
"xX c #7DB8C3",
"cX c #7EB9C4",
"vX c #7EBAC4",
"bX c #7EBAC5",
"nX c #7EBBC5",
"mX c #7FBBC5",
"MX c #7FBBC6",
"NX c #7FBCC6",
"BX c #7FBCC7",
"VX c #80BCC7",
"CX c #80BDC7",
"ZX c #80BCC8",
"AX c #81BEC8",
"SX c #81BFC9",
"DX c #81BFCA",
"FX c #82C0CB",
/* pixels */
"                                                                                                ",
"                                                                                                ",
"                                                                                                ",
"                                                                                                ",
"                                                                                                ",
"                                                                                                ",
"                                                                                                ",
"                                                                                                ",
"                                                                                                ",
"                                                                                                ",
"                                                                                                ",
"                                                                                                ",
"                                                                                                ",
"                                                                                                ",
"                                                                                                ",
"                  3 , e B { B e , 3 3 3 3 3 , e B { ^ ^ { B e , 3 3 3 3 3 3 3                   ",
"                  , - 0 n W v , O % % % % % O , v W I I I v , O - - - 3 3 3 3                   ",
"                  r r h 8.y.q.K G J J J J J G K q.y.t.y.f.q.K J l a e w 5 3 3                   ",
"3 , e B { B e % r _ #.j.%XtX7X3X1X1X1X1X1X1X1X3X7X0X7X7X7X7X4X7X$Xh.#.X.r , 3 , 3 3 3 , e B ^ W ",
"; O , c ^ v 3 . w %.2.b.sXZXNXNXZXVXVXVXVXVXZXVXMXMXVXMXVXVXZXZXyXb.5.#.w O - O % % % O , v W W ",
"J m K q.f.q.L G J 0.i.M.eXMXxXxXxXxXxXxXxXxXxXxXxXxXxXxXxXxXxXNXtXC.i.0.K m J J J J z G K 8.y.t.",
"1X1X3X7X7X7X3X4X*X^.Z.(.uXMXxXxXxXxXxXxXxXxXxXxXxXxXxXxXxXxXxXNXaX(.Z.!.*X4X1X1X4X4X4X4X4X0X7X7X",
"VXZXVXNXVXVXVXZXjX].I.].uXMXxXxXxXxXxXxXxXxXxXxXxXxXxXxXxXxXxXMXaX].L.}.jXZXBXZXVXZXVXZXZXZXMXMX",
"xXxXxXxXxXxXxXMXaX XU. XsXMXxXxXxXxXxXxXxXxXxXxXxXxXxXxXxXzXzXMXuX XQ. XaXNXxXxXzXxXzXxXzXxXzXMX",
"xXxXxXxXxXxXxXMXsX=X.X=XjXMXxXxXxXxXxXxXxXxXxXxXxXxXxXxXxXxXxXxXsX=X.X=XjXMXxXxXxXxXxXxXxXxXxXxX",
"xXxXxXxXxXxXxXxXgX;X+X,XgXxXxXxXxXxXxXxXxXxXxXxXxXxXxXxXxXxXxXMXjX-X+X,XjXzXxXxXxXxXxXxXxXxXxXxX",
"xXxXxXxXxXxXxXxXkX-XoX-XgXMXzXxXxXxXxXxXxXxXxXxXxXxXxXxXxXxXxXxXjX;XoX-XgXzXzXxXxXxXxXxXxXxXxXxX",
"xXxXxXxXxXxXxXMXkX-XoX-XgXxXzXxXxXxXxXxXxXxXxXxXxXxXxXxXxXxXxXxXkX-XoX-XgXMXxXxXxXxXxXxXxXxXxXxX",
"xXxXxXxXxXxXxXxXkX;XoX-XjXxXxXxXxXxXxXxXxXxXxXxXxXxXxXxXxXxXxXVXkX-XoX,XjXxXxXxXxXxXxXxXxXxXxXxX",
"xXxXxXxXxXxXxXxXdX=X.X=XdXMXxXxXxXxXxXxXxXxXxXxXxXxXxXxXxXxXjXjXuX=X.X=XdXMXxXzXxXxXxXxXxXxXxXxX",
"xXxXxXxXxXxXxXNXsX XU. XsXMXxXxXxXxXxXxXxXxXxXxXxXxXxXxXMXkX<X-X#X`.~. XsXMXMXzXxXxXxXxXxXxXxXxX",
"NXNXNXNXNXVXVXVXjX[.H.].jXVXNXMXMXMXNXNXNXMXMXMXMXMXMXMXNXzX-X#XoX~.U.[.jXBXBXNXNXNXNXNXNXNXNXNX",
"7X7X7XqXeX0X7XtX*XQ.N.Q.>X7X7XeXtXqX7X0X7XqXeXtXwXtXwX7X0X1X{.{._.A.l.P.&X3X3X7X0X7X7X7X0XqXtXqX",
"t.t.y.x.b.l.y.y.e.>.@.@.e.f.f.l.x.l.y.t.y.l.b.l.x.x.l.s.f.8.M j a h a h z J K q.y.t.f.e.f.l.b.x.",
"I B W %.2.%.^ I I I / I I B W %.-.%.W B W %.2.2.%.-.%.^ I c 1 O % % ; ; O O ; c I B I I ^ %.2.%.",
"{ [ O.2.w.2.[ { { / ^ { [ ^ O.2.0.2.O.{ O.2.7.2.u.0.2.O.{ ^ u e r 3 3 0 e e r ^ { O.{ { O.2.7.7.",
"2.2.2.0.2.2.2.>.2.{ / { 2.2.>.0.u.2.>.>.>.u.2.w.2.w.2.>.>.&.^ B b 0 3 0 M B ^ %.>.>.2.2.;.0.2.0.",
"2.2.2.2.8.2.2.u.>.X.I X.>.w.2.2.2.0.w.2.2.2.0.2.0.2.w.2.2.0.{ { S r - 0 M / { >.w.2.2.2.2.2.2.2.",
"a.s.s.a.a.a.a.s.w.{ I X.2.2.0.2.w.2.0.2.w.2.2.0.2.w.2.u.w.2.X./ S u 0 u X.@.@.p.i.s.s.y.s.s.a.a.",
"F.F.P.H.H.H.H.L.N.@./ { >.0.2.w.2.u.2.w.2.0.w.2.u.2.0.2.2.>.X./ ^ S M X.l.H.Z.P.H.H.H.H.H.H.P.Z.",
"W.W.W.W.W.W.U.!.Z.@.^ O.2.0.0.2.0.2.2.0.2.w.0.2.0.2.w.2.w.2.{ / / { { &.H.^.U.Q.Q.U.U.~.U.W.W.W.",
"I.U.U.U.U.U.U.~.Z.X.M S &.2.2.>.2.2.>.>.>.2.>.2.>.2.>.2.2.&.{ ^ ^ S B O.Z.W.U.U.U.U.U.U.U.U.U.U.",
"I.Q.U.U.U.U.Q.U.A.j 0 u ^ { { X.{ { { { { { { { { { { X.X.{ { / S r 0 j N.Q.U.U.U.U.U.U.U.U.U.U.",
"!.W.~.^.^.!.!.^.A.a % 0 B { { / / { { { ^ { ^ { { ^ / { { ^ { { S r % a C.^.!.!.^.^.^.~.~.~.^.!.",
"b.N.N.b.A.b.b.A.k.u % e c S B B B B B B B B B B B B B B B B B B b e % u k.A.b.A.b.N.b.N.N.b.N.b.",
"h a j a h a h g a 0 3 3 0 r e r e r e e e e e r e e e e r w r e e 4 - r a g a h j a j a a h a h ",
"% , - - % - - - - 3 3 3 3 , ; , , , , , ; , , , , , ; , , , , 3 3 3 , , , % - % % - % 3 - % 3 - ",
"3 3 3 , 3 3 3 3 3 3 3 3 3 3 3 3 3 3 3 3 3 3 3 3 3 3 3 3 3 3 3 3 3 3 3 3 3 3 3 3 3 3 3 3 3 3 3 3 "
};
