/* XPM */
static char *_42b1cc789f745b5d3beebeb1549b9a8BOcm2C5WjrAHgZgj[] = {
/* columns rows colors chars-per-pixel */
"48 48 78 1 ",
"  c None",
". c #25363C",
"X c #27393E",
"o c #273A40",
"O c #2A3D43",
"+ c #2C3F49",
"@ c #2C4047",
"# c #2E424B",
"$ c #31454E",
"% c #324553",
"& c #334954",
"* c #344759",
"= c #364A5B",
"- c #384D5B",
"; c #3A525E",
": c #374A60",
"> c #3A4D63",
", c #3D5166",
"< c #3E5B63",
"1 c #3E5369",
"2 c #42556B",
"3 c #435A6E",
"4 c #465B71",
"5 c #495E74",
"6 c #4A5F78",
"7 c #43636C",
"8 c #466573",
"9 c #4B6175",
"0 c #476874",
"q c #4C657B",
"w c #4B6C7C",
"e c #516E7F",
"r c #4D6E81",
"t c #516780",
"y c #536982",
"u c #576E88",
"i c #596F8A",
"p c #4E7083",
"a c #527386",
"s c #537A86",
"d c #547589",
"f c #5B728E",
"g c #577E8E",
"h c #5D7591",
"j c #567E93",
"k c #5C7A92",
"l c #59808D",
"z c #5B8291",
"x c #5D8C97",
"c c #5E839A",
"v c #5F8E99",
"b c #5F9099",
"n c #608297",
"m c #62849C",
"M c #608F9A",
"N c #61919C",
"B c #6284A1",
"V c #668DA6",
"C c #638CA8",
"Z c #6595A4",
"A c #6798A7",
"S c #6691AE",
"D c #6994AD",
"F c #6799A8",
"G c #6A9BAA",
"H c #6694B1",
"J c #6A9BB4",
"K c #6D9FB8",
"L c #6FA1B2",
"P c #71A4B6",
"I c #73A7B9",
"U c #73ABBD",
"Y c #76B3BF",
"T c #77B4C0",
"R c #79B5C2",
"E c #7BBAC6",
"W c #7DBDC9",
"Q c #7FC0CC",
/* pixels */
"                                                ",
"                                                ",
"                                                ",
"                                                ",
"                                                ",
"                                                ",
"                                                ",
"                                                ",
"                                                ",
"                                                ",
"                                                ",
"                                                ",
"                                                ",
"                                                ",
"                                                ",
"          O+%*%+......o+%*:::++o.XooOO          ",
"         O@$-,>&####@@#&;,111>&#@@@X@XX         ",
"        O#$,8ww077777770wppppw07;-$@@XX.        ",
"..O%=%OXO%-9gZZNbbbbMMNNNZZZZZbbs9-$OXXX...X+%*:",
"##&>,-&$%-3aZURYYYYYYYYYTTTTYTTYZd4-&$@@$@@$&-11",
"770wew0733qkJEQQQWWWQWWWEQQQQQQELkq3977377770wwa",
"bNNNANNMldinLEQQWWWWWWWWQEEWEQQRLnuulNNmbbMMNNZZ",
"YTTTYYYYLmkmLRWEEEEEEEEEEREEEEWRPmkmGYRRYYYYYYYY",
"WWWWWQQEIVmVKRWWEEEEEEEEEEEEEEWRPVmVIEQQWWQWQWQQ",
"WWWWWWQEUCCHIREEWRWWEEEEEEEEEEERKDCDIEQQWEWWWWWE",
"EEEEEEWRTHSJUEWERWRREEEEEEEEEEQETHSJTEWEEEEEEEEE",
"EEEEEWWRUJHJTRWEWEEEEEEEEEEEEEERTHHJKREEEEEEEEEE",
"EEEEEEEETJHJIRWWEEEEWREEEEEEEEQETKHJTREWEEEEEEEE",
"EEEEEWERUJSJTREWEEEEEEEREEWREEETIJSJIEWWEEEEEEEE",
"WEWEEWWEIDVDURWWWWEWEWWWWWWWEERUKDCDIEWWEWEWWEEW",
"WWWWWWQEISBCPEQWWWWWWWWWWWWQWTUPDBkDIWQWWWWWWWWW",
"YRRRRRRYGmkcGTETTTTTTTTTTTTTTUHCmhhkLYYRRYRRRRRR",
"ZAAFAFFZcdrdcCFFAAAAAAAFGFFFZvjst0qrlvNZAAFAAFFF",
"ppaafdarq548trpsduaraaaddddarq31-=-;370wwppppsdd",
"12132222,,,>,1143322124433322=*+#@@@+#&>11112344",
":>>>>2::::>>>>>,>2>:>112222>>:++OoooOO%*:,::>>2,",
",>222222>>>>,111222>,12222222**%#OoO#%*:=222,22>",
"332222221,>>,122222222222222222=*###*>,122223322",
"5656456541>,222222222222222222::*%%*,36655666655",
"tttyttyt62,>,232222322222222222::==,4qtyttytyttt",
"iiiiiiiit1>>22221222222222222>2>::-2qiiiiiiiiiii",
"hffffhhft1==>2,2111112112,2222>:---2qihhfffffffh",
"fffffhhiq,%%=>>1,,,,,,,,>,,2>>2=-+%,qfhhffffffff",
"iiiiiiie4=@+*>:>>>:>>>:>>::>>:=2:++-9eieiiiiiiii",
"955599952%OO$************:*%&&&&++++<59955595555",
"---&---&$$OO+#$+#####+#+++++##+%++++$---&---==--",
"@@O@@@@@OXoOOOOOOOOO+OO+OO++@@@XOXOO@@@X@@O+++OO",
"XXXXXXXXXOOOoooooOoooooooOooXXXXOOOXXXXXXXXXXXXX"
};
